<svg id="Layer_1" data-name="Layer 1" xmlns="http://www.w3.org/2000/svg" viewBox="0 0 800 520"><defs><style>.cls-1,.cls-5{fill:#fff;}.cls-2{fill:#77ea57;}.cls-3{fill:#e5e5e5;}.cls-4{fill:#c6c6c4;}.cls-5{stroke:#000;stroke-miterlimit:10;}.cls-6{fill:#edbf00;}.cls-7{fill:#1173bc;}</style></defs><title>PageConcept</title><rect class="cls-1" x="0.46" y="0.46" width="799.07" height="519.07"/><path d="M819.32,23.43V541.57H21.18V23.43H819.32m.93-.93h-800v520h800V22.5Z" transform="translate(-20.25 -22.5)"/><rect class="cls-2" x="23.7" y="27.44" width="752" height="82"/><path d="M795.45,50.44v81h-751v-81h751m1-1h-753v83h753v-83Z" transform="translate(-20.25 -22.5)"/><path d="M395.65,84.09v5.08h5.87V84.09h1.58V96.22h-1.58V90.53h-5.87v5.69h-1.57V84.09Z" transform="translate(-20.25 -22.5)"/><path d="M406.64,92.16a2.79,2.79,0,0,0,3,3,5.72,5.72,0,0,0,2.41-.45l.27,1.13a7.06,7.06,0,0,1-2.9.54A4,4,0,0,1,405.13,92c0-2.63,1.55-4.7,4.09-4.7,2.84,0,3.6,2.5,3.6,4.1a6,6,0,0,1-.05.74ZM411.29,91a2.26,2.26,0,0,0-2.2-2.57A2.63,2.63,0,0,0,406.66,91Z" transform="translate(-20.25 -22.5)"/><path d="M419.61,96.22l-.13-1.1h-.05a3.25,3.25,0,0,1-2.67,1.3,2.48,2.48,0,0,1-2.66-2.5c0-2.11,1.87-3.26,5.24-3.24V90.5a1.8,1.8,0,0,0-2-2,4.34,4.34,0,0,0-2.27.65l-.36-1a5.41,5.41,0,0,1,2.86-.77c2.67,0,3.31,1.82,3.31,3.56v3.26a12.28,12.28,0,0,0,.14,2.09Zm-.23-4.45c-1.73,0-3.69.27-3.69,2a1.4,1.4,0,0,0,1.49,1.51,2.17,2.17,0,0,0,2.11-1.46,1.66,1.66,0,0,0,.09-.5Z" transform="translate(-20.25 -22.5)"/><path d="M431,83.44V94c0,.77,0,1.66.07,2.25h-1.42l-.07-1.51h0a3.22,3.22,0,0,1-3,1.71c-2.11,0-3.73-1.78-3.73-4.43,0-2.9,1.78-4.68,3.91-4.68a2.91,2.91,0,0,1,2.63,1.33h0v-5.2Zm-1.58,7.62a2.81,2.81,0,0,0-.07-.67A2.33,2.33,0,0,0,427,88.55c-1.64,0-2.61,1.44-2.61,3.37,0,1.76.86,3.22,2.57,3.22a2.38,2.38,0,0,0,2.32-1.89,2.77,2.77,0,0,0,.07-.68Z" transform="translate(-20.25 -22.5)"/><path d="M434.49,92.16a2.79,2.79,0,0,0,3,3,5.73,5.73,0,0,0,2.41-.45l.27,1.13a7.06,7.06,0,0,1-2.9.54A4,4,0,0,1,433,92c0-2.63,1.55-4.7,4.09-4.7,2.85,0,3.6,2.5,3.6,4.1a5.84,5.84,0,0,1-.05.74ZM439.13,91a2.26,2.26,0,0,0-2.2-2.57A2.63,2.63,0,0,0,434.51,91Z" transform="translate(-20.25 -22.5)"/><path d="M442.63,90.23c0-1,0-1.91-.07-2.72h1.39l.05,1.71h.07a2.61,2.61,0,0,1,2.41-1.91,1.74,1.74,0,0,1,.45.05v1.49a2.38,2.38,0,0,0-.54-.05,2.22,2.22,0,0,0-2.12,2,4.56,4.56,0,0,0-.07.74v4.65h-1.57Z" transform="translate(-20.25 -22.5)"/><rect class="cls-3" x="23.67" y="131.92" width="752.16" height="320.16"/><path d="M795.66,154.84V474.16H44.34V154.84H795.66m.84-.84H43.5V475h753V154Z" transform="translate(-20.25 -22.5)"/><rect class="cls-4" x="42.3" y="153.05" width="713.9" height="235.9"/><path d="M775.9,176.1V410.9H63.1V176.1H775.9M777,175H62V412H777V175Z" transform="translate(-20.25 -22.5)"/><path class="cls-5" d="M62,391" transform="translate(-20.25 -22.5)"/><path class="cls-5" d="M62,587" transform="translate(-20.25 -22.5)"/><rect class="cls-1" x="60.28" y="170.03" width="239.94" height="174.94"/><path d="M319.94,193.06V366.94H81.06V193.06H319.94M321,192H80V368H321V192Z" transform="translate(-20.25 -22.5)"/><rect class="cls-1" x="322.27" y="170.03" width="411.95" height="173.95"/><path d="M753.95,193.05v172.9H343.05V193.05h410.9M755,192H342V367H755V192Z" transform="translate(-20.25 -22.5)"/><rect class="cls-6" x="77.28" y="184.69" width="208" height="122"/><path class="cls-1" d="M181,273.08a7.78,7.78,0,0,1-3.21.58c-3.42,0-6-2.16-6-6.14a6,6,0,0,1,6.34-6.37,6.5,6.5,0,0,1,2.88.54l-.38,1.28a5.71,5.71,0,0,0-2.45-.5c-2.84,0-4.74,1.82-4.74,5,0,3,1.71,4.88,4.66,4.88a6.27,6.27,0,0,0,2.56-.5Z" transform="translate(-20.25 -22.5)"/><path class="cls-1" d="M190.58,269a4.26,4.26,0,0,1-4.34,4.63,4.14,4.14,0,0,1-4.18-4.48c0-2.92,1.91-4.63,4.32-4.63S190.58,266.38,190.58,269Zm-6.91.09c0,1.91,1.1,3.35,2.65,3.35s2.65-1.42,2.65-3.39c0-1.48-.74-3.35-2.61-3.35S183.67,267.48,183.67,269.14Z" transform="translate(-20.25 -22.5)"/><path class="cls-1" d="M192.58,267.12c0-.9,0-1.64-.07-2.36h1.4l.09,1.44h0a3.2,3.2,0,0,1,2.88-1.64c1.21,0,3.08.72,3.08,3.71v5.2h-1.58v-5c0-1.4-.52-2.57-2-2.57a2.25,2.25,0,0,0-2.12,1.62,2.29,2.29,0,0,0-.11.74v5.24h-1.58Z" transform="translate(-20.25 -22.5)"/><path class="cls-1" d="M204.4,262.26v2.5h2.27V266H204.4v4.7c0,1.08.31,1.69,1.19,1.69a3.54,3.54,0,0,0,.92-.11l.07,1.19a3.88,3.88,0,0,1-1.4.22,2.2,2.2,0,0,1-1.71-.67,3.23,3.23,0,0,1-.61-2.27V266H201.5v-1.21h1.35v-2.09Z" transform="translate(-20.25 -22.5)"/><path class="cls-1" d="M209.23,269.41a2.79,2.79,0,0,0,3,3,5.72,5.72,0,0,0,2.41-.45l.27,1.13a7.06,7.06,0,0,1-2.9.54,4,4,0,0,1-4.29-4.39c0-2.63,1.55-4.7,4.09-4.7,2.84,0,3.6,2.5,3.6,4.1a6,6,0,0,1-.05.74Zm4.65-1.13a2.26,2.26,0,0,0-2.2-2.57,2.63,2.63,0,0,0-2.43,2.57Z" transform="translate(-20.25 -22.5)"/><path class="cls-1" d="M217.36,267.12c0-.9,0-1.64-.07-2.36h1.4l.09,1.44h0a3.2,3.2,0,0,1,2.88-1.64c1.21,0,3.08.72,3.08,3.71v5.2h-1.58v-5c0-1.4-.52-2.57-2-2.57a2.25,2.25,0,0,0-2.12,1.62,2.29,2.29,0,0,0-.11.74v5.24h-1.58Z" transform="translate(-20.25 -22.5)"/><path class="cls-1" d="M229.19,262.26v2.5h2.27V266h-2.27v4.7c0,1.08.31,1.69,1.19,1.69a3.54,3.54,0,0,0,.92-.11l.07,1.19a3.88,3.88,0,0,1-1.4.22,2.2,2.2,0,0,1-1.71-.67,3.23,3.23,0,0,1-.61-2.27V266h-1.35v-1.21h1.35v-2.09Z" transform="translate(-20.25 -22.5)"/><rect class="cls-7" x="339.18" y="186.51" width="377" height="122"/><path class="cls-1" d="M530.63,270c-.09-1.69-.2-3.73-.18-5.24h-.05c-.41,1.42-.92,2.93-1.53,4.61l-2.14,5.89h-1.19l-2-5.78c-.58-1.71-1.06-3.28-1.4-4.72h0c0,1.51-.12,3.55-.23,5.37l-.32,5.2h-1.5l.85-12.14h2L525,269c.5,1.5.92,2.83,1.22,4.09h.05c.3-1.22.74-2.56,1.28-4.09l2.16-5.87h2l.76,12.14h-1.53Z" transform="translate(-20.25 -22.5)"/><path class="cls-1" d="M542.82,270.87a4.26,4.26,0,0,1-4.34,4.63A4.14,4.14,0,0,1,534.3,271c0-2.92,1.91-4.63,4.32-4.63S542.82,268.2,542.82,270.87Zm-6.91.09c0,1.91,1.1,3.35,2.65,3.35s2.65-1.42,2.65-3.39c0-1.48-.74-3.35-2.61-3.35S535.9,269.3,535.9,271Z" transform="translate(-20.25 -22.5)"/><path class="cls-1" d="M552.34,262.51V273c0,.77,0,1.66.07,2.25H551l-.07-1.51h0a3.22,3.22,0,0,1-3,1.71c-2.11,0-3.73-1.78-3.73-4.43,0-2.9,1.78-4.68,3.91-4.68a2.91,2.91,0,0,1,2.63,1.33h0v-5.2Zm-1.59,7.62a2.86,2.86,0,0,0-.07-.67,2.33,2.33,0,0,0-2.29-1.84c-1.64,0-2.61,1.44-2.61,3.37,0,1.76.87,3.22,2.57,3.22a2.38,2.38,0,0,0,2.32-1.89,2.82,2.82,0,0,0,.07-.68Z" transform="translate(-20.25 -22.5)"/><path class="cls-1" d="M562.25,272.92c0,.9,0,1.69.07,2.38h-1.4l-.09-1.42h0a3.28,3.28,0,0,1-2.88,1.62c-1.37,0-3-.76-3-3.82v-5.1h1.58v4.83c0,1.66.5,2.77,1.95,2.77a2.29,2.29,0,0,0,2.09-1.44,2.32,2.32,0,0,0,.14-.81v-5.35h1.58Z" transform="translate(-20.25 -22.5)"/><path class="cls-1" d="M564.88,262.51h1.58V275.3h-1.58Z" transform="translate(-20.25 -22.5)"/><path class="cls-1" d="M570,271.23a2.79,2.79,0,0,0,3,3,5.71,5.71,0,0,0,2.41-.45l.27,1.13a7.05,7.05,0,0,1-2.9.54,4,4,0,0,1-4.29-4.39c0-2.63,1.55-4.7,4.09-4.7,2.84,0,3.6,2.5,3.6,4.11a6.12,6.12,0,0,1-.05.74Zm4.65-1.13a2.26,2.26,0,0,0-2.2-2.57,2.62,2.62,0,0,0-2.43,2.57Z" transform="translate(-20.25 -22.5)"/><path d="M398,385.69a16.31,16.31,0,0,1,3-.25,5,5,0,0,1,3.51,1,3,3,0,0,1,1,2.3,3.19,3.19,0,0,1-2.29,3.1v.05a3,3,0,0,1,1.78,2.45,19.25,19.25,0,0,0,.94,3.33h-1.62a15.69,15.69,0,0,1-.81-2.9c-.36-1.67-1-2.3-2.43-2.36H399.6v5.26H398Zm1.57,5.53h1.6c1.67,0,2.74-.92,2.74-2.3,0-1.57-1.13-2.25-2.79-2.27a6.42,6.42,0,0,0-1.55.14Z" transform="translate(-20.25 -22.5)"/><path d="M415.62,393.24a4.26,4.26,0,0,1-4.34,4.63,4.14,4.14,0,0,1-4.18-4.48c0-2.92,1.91-4.63,4.32-4.63S415.62,390.57,415.62,393.24Zm-6.91.09c0,1.91,1.1,3.35,2.65,3.35s2.65-1.42,2.65-3.38c0-1.48-.74-3.35-2.61-3.35S408.71,391.67,408.71,393.33Z" transform="translate(-20.25 -22.5)"/><path d="M418.12,389l1.15,4.43c.25,1,.49,1.87.65,2.77H420c.2-.88.49-1.82.77-2.75l1.42-4.45h1.33l1.35,4.36c.32,1,.58,2,.77,2.84h.05a26.17,26.17,0,0,1,.67-2.83l1.24-4.38h1.57l-2.81,8.71h-1.44l-1.33-4.16a29,29,0,0,1-.77-2.86h0a25.64,25.64,0,0,1-.79,2.88l-1.4,4.14h-1.44L416.5,389Z" transform="translate(-20.25 -22.5)"/><path d="M171.18,354.27a7.78,7.78,0,0,1-3.21.58c-3.42,0-6-2.16-6-6.14a6,6,0,0,1,6.34-6.37,6.5,6.5,0,0,1,2.88.54l-.38,1.28a5.71,5.71,0,0,0-2.45-.5c-2.84,0-4.74,1.82-4.74,5,0,3,1.71,4.88,4.66,4.88a6.27,6.27,0,0,0,2.56-.5Z" transform="translate(-20.25 -22.5)"/><path d="M180.78,350.24a4.26,4.26,0,0,1-4.34,4.63,4.14,4.14,0,0,1-4.18-4.48c0-2.92,1.91-4.63,4.32-4.63S180.78,347.57,180.78,350.24Zm-6.91.09c0,1.91,1.1,3.35,2.65,3.35s2.65-1.42,2.65-3.39c0-1.48-.74-3.35-2.61-3.35S173.86,348.67,173.86,350.33Z" transform="translate(-20.25 -22.5)"/><path d="M182.77,341.88h1.58v12.78h-1.58Z" transform="translate(-20.25 -22.5)"/><path d="M194.31,352.29c0,.9,0,1.69.07,2.38H193l-.09-1.42h0a3.28,3.28,0,0,1-2.88,1.62c-1.37,0-3-.76-3-3.82V346h1.58v4.83c0,1.66.5,2.77,1.94,2.77a2.23,2.23,0,0,0,2.23-2.25V346h1.58Z" transform="translate(-20.25 -22.5)"/><path d="M196.94,348.31c0-.9,0-1.64-.07-2.36h1.39l.07,1.4h.05a3,3,0,0,1,2.74-1.6,2.58,2.58,0,0,1,2.47,1.75h0a3.59,3.59,0,0,1,1-1.13,3,3,0,0,1,1.93-.61c1.15,0,2.86.76,2.86,3.78v5.13h-1.55v-4.93c0-1.67-.61-2.68-1.89-2.68a2.05,2.05,0,0,0-1.87,1.44,2.61,2.61,0,0,0-.13.79v5.38h-1.55v-5.22c0-1.39-.61-2.39-1.82-2.39a2.36,2.36,0,0,0-2.09,2.36v5.26h-1.55Z" transform="translate(-20.25 -22.5)"/><path d="M211.95,348.31c0-.9,0-1.64-.07-2.36h1.4l.09,1.44h0a3.2,3.2,0,0,1,2.88-1.64c1.21,0,3.08.72,3.08,3.71v5.2h-1.58v-5c0-1.4-.52-2.57-2-2.57a2.25,2.25,0,0,0-2.12,1.62,2.29,2.29,0,0,0-.11.74v5.24h-1.58Z" transform="translate(-20.25 -22.5)"/><path d="M225.61,349.21v1.17h-4.45v-1.17Z" transform="translate(-20.25 -22.5)"/><path d="M231.86,354.67v-3.19h-5.44v-1l5.22-7.47h1.71v7.27H235v1.24h-1.64v3.19Zm0-4.43v-3.91q0-.92.05-1.84h-.05c-.36.68-.65,1.19-1,1.73l-2.86,4v0Z" transform="translate(-20.25 -22.5)"/><path d="M530.18,354.27a7.78,7.78,0,0,1-3.21.58c-3.42,0-6-2.16-6-6.14a6,6,0,0,1,6.34-6.37,6.5,6.5,0,0,1,2.88.54l-.38,1.28a5.71,5.71,0,0,0-2.45-.5c-2.84,0-4.73,1.82-4.73,5,0,3,1.71,4.88,4.66,4.88a6.27,6.27,0,0,0,2.56-.5Z" transform="translate(-20.25 -22.5)"/><path d="M539.78,350.24a4.26,4.26,0,0,1-4.34,4.63,4.14,4.14,0,0,1-4.18-4.48c0-2.92,1.91-4.63,4.32-4.63S539.78,347.57,539.78,350.24Zm-6.91.09c0,1.91,1.1,3.35,2.65,3.35s2.65-1.42,2.65-3.39c0-1.48-.74-3.35-2.61-3.35S532.86,348.67,532.86,350.33Z" transform="translate(-20.25 -22.5)"/><path d="M541.77,341.88h1.58v12.78h-1.58Z" transform="translate(-20.25 -22.5)"/><path d="M553.31,352.29c0,.9,0,1.69.07,2.38H552l-.09-1.42h0a3.28,3.28,0,0,1-2.88,1.62c-1.37,0-3-.76-3-3.82V346h1.58v4.83c0,1.66.5,2.77,1.94,2.77a2.23,2.23,0,0,0,2.23-2.25V346h1.58Z" transform="translate(-20.25 -22.5)"/><path d="M555.94,348.31c0-.9,0-1.64-.07-2.36h1.39l.07,1.4h.05a3,3,0,0,1,2.74-1.6,2.58,2.58,0,0,1,2.47,1.75h0a3.59,3.59,0,0,1,1-1.13,3,3,0,0,1,1.93-.61c1.15,0,2.86.76,2.86,3.78v5.13h-1.55v-4.93c0-1.67-.61-2.68-1.89-2.68a2.05,2.05,0,0,0-1.87,1.44,2.63,2.63,0,0,0-.13.79v5.38h-1.55v-5.22c0-1.39-.61-2.39-1.82-2.39a2.36,2.36,0,0,0-2.09,2.36v5.26h-1.55Z" transform="translate(-20.25 -22.5)"/><path d="M570.95,348.31c0-.9,0-1.64-.07-2.36h1.41l.09,1.44h0a3.2,3.2,0,0,1,2.88-1.64c1.21,0,3.08.72,3.08,3.71v5.2h-1.58v-5c0-1.4-.52-2.57-2-2.57a2.32,2.32,0,0,0-2.23,2.36v5.24h-1.58Z" transform="translate(-20.25 -22.5)"/><path d="M584.61,349.21v1.17h-4.45v-1.17Z" transform="translate(-20.25 -22.5)"/><path d="M592.64,344.08a5.72,5.72,0,0,0-1.19.07,4.76,4.76,0,0,0-4.07,4.16h.05a3.57,3.57,0,0,1,6.36,2.43,3.91,3.91,0,0,1-3.89,4.12c-2.5,0-4.14-1.94-4.14-5a7.36,7.36,0,0,1,2-5.28,6.37,6.37,0,0,1,3.74-1.73,7.59,7.59,0,0,1,1.15-.09Zm-.45,6.75a2.38,2.38,0,0,0-2.41-2.68,2.61,2.61,0,0,0-2.27,1.44,1.35,1.35,0,0,0-.18.7c0,1.93.92,3.35,2.57,3.35C591.27,353.64,592.19,352.51,592.19,350.83Z" transform="translate(-20.25 -22.5)"/><path d="M384,437.53h1.57v10.82h5.19v1.31H384Z" transform="translate(-20.25 -22.5)"/><path d="M397.3,449.67l-.13-1.1h-.05a3.25,3.25,0,0,1-2.67,1.3,2.48,2.48,0,0,1-2.66-2.5c0-2.11,1.87-3.26,5.24-3.24v-.18a1.8,1.8,0,0,0-2-2,4.34,4.34,0,0,0-2.27.65l-.36-1a5.41,5.41,0,0,1,2.86-.77c2.67,0,3.31,1.82,3.31,3.57v3.26a12.28,12.28,0,0,0,.14,2.09Zm-.23-4.45c-1.73,0-3.69.27-3.69,2a1.4,1.4,0,0,0,1.49,1.51,2.17,2.17,0,0,0,2.11-1.46,1.66,1.66,0,0,0,.09-.5Z" transform="translate(-20.25 -22.5)"/><path d="M401.58,441l1.91,5.15c.2.58.41,1.26.56,1.78h0c.16-.52.34-1.19.56-1.82l1.73-5.11H408l-2.38,6.21c-1.13,3-1.91,4.52-3,5.46a4.3,4.3,0,0,1-1.94,1l-.4-1.33a4.19,4.19,0,0,0,1.39-.77,4.81,4.81,0,0,0,1.33-1.76,1.14,1.14,0,0,0,.13-.38,1.38,1.38,0,0,0-.11-.41l-3.22-8Z" transform="translate(-20.25 -22.5)"/><path d="M417.19,445.24a4.26,4.26,0,0,1-4.34,4.63,4.14,4.14,0,0,1-4.18-4.48c0-2.92,1.91-4.63,4.32-4.63S417.19,442.57,417.19,445.24Zm-6.91.09c0,1.91,1.1,3.35,2.65,3.35s2.65-1.42,2.65-3.38c0-1.48-.74-3.35-2.61-3.35S410.28,443.67,410.28,445.33Z" transform="translate(-20.25 -22.5)"/><path d="M426.48,447.29c0,.9,0,1.69.07,2.38h-1.4l-.09-1.42h0a3.28,3.28,0,0,1-2.88,1.62c-1.37,0-3-.76-3-3.82V441h1.58v4.83c0,1.66.5,2.77,1.94,2.77a2.23,2.23,0,0,0,2.23-2.25V441h1.58Z" transform="translate(-20.25 -22.5)"/><path d="M431,438.45V441h2.27v1.21H431v4.7c0,1.08.31,1.69,1.19,1.69a3.49,3.49,0,0,0,.92-.11l.07,1.19a3.88,3.88,0,0,1-1.4.22,2.19,2.19,0,0,1-1.71-.67,3.23,3.23,0,0,1-.61-2.27v-4.75h-1.35V441h1.35v-2.09Z" transform="translate(-20.25 -22.5)"/><path d="M389.34,502.35a21.22,21.22,0,0,1,3.51-.27,5.81,5.81,0,0,1,4,1.18,3.81,3.81,0,0,1,1.24,3,4.16,4.16,0,0,1-1.09,3,5.86,5.86,0,0,1-4.33,1.55,6.26,6.26,0,0,1-1.47-.13v5.67h-1.83Zm1.83,6.82a6.15,6.15,0,0,0,1.51.15c2.2,0,3.55-1.07,3.55-3s-1.32-2.77-3.34-2.77a7.67,7.67,0,0,0-1.72.15Z" transform="translate(-20.25 -22.5)"/><path d="M405.53,516.33l-.15-1.28h-.06a3.79,3.79,0,0,1-3.11,1.51,2.9,2.9,0,0,1-3.11-2.92c0-2.46,2.18-3.8,6.11-3.78v-.21a2.09,2.09,0,0,0-2.31-2.35,5.06,5.06,0,0,0-2.65.76l-.42-1.22a6.31,6.31,0,0,1,3.34-.9c3.11,0,3.86,2.12,3.86,4.16v3.8a14.3,14.3,0,0,0,.17,2.44Zm-.27-5.19c-2,0-4.3.32-4.3,2.29a1.63,1.63,0,0,0,1.74,1.76,2.53,2.53,0,0,0,2.46-1.7,1.92,1.92,0,0,0,.1-.59Z" transform="translate(-20.25 -22.5)"/><path d="M418.78,506.17c0,.74-.08,1.55-.08,2.79v5.9c0,2.33-.46,3.76-1.45,4.64a5.39,5.39,0,0,1-3.7,1.22,6.55,6.55,0,0,1-3.38-.84l.46-1.41a5.73,5.73,0,0,0,3,.8c1.89,0,3.28-1,3.28-3.55v-1.13h0a3.63,3.63,0,0,1-3.23,1.7c-2.52,0-4.33-2.14-4.33-5,0-3.44,2.25-5.4,4.58-5.4A3.38,3.38,0,0,1,417,507.7h0l.08-1.53Zm-1.91,4a2.63,2.63,0,0,0-.1-.84,2.66,2.66,0,0,0-2.58-2c-1.76,0-3,1.49-3,3.84,0,2,1,3.65,3,3.65a2.7,2.7,0,0,0,2.56-1.89,3.21,3.21,0,0,0,.15-1Z" transform="translate(-20.25 -22.5)"/><path d="M422.8,511.59a3.26,3.26,0,0,0,3.48,3.53,6.67,6.67,0,0,0,2.81-.53l.31,1.32a8.23,8.23,0,0,1-3.38.63c-3.13,0-5-2.06-5-5.12s1.81-5.48,4.77-5.48c3.32,0,4.2,2.92,4.2,4.79a7.09,7.09,0,0,1-.06.86Zm5.42-1.32c0-1.18-.48-3-2.56-3-1.87,0-2.69,1.72-2.83,3Z" transform="translate(-20.25 -22.5)"/></svg>