<svg xmlns="http://www.w3.org/2000/svg" viewBox="0 0 424.74 402.2"><defs><style>.cls-1{fill:#eb3e28;}.cls-2{fill:#fff;}.cls-3,.cls-9{fill:none;stroke:#c82127;stroke-miterlimit:10;}.cls-3{stroke-width:1.4px;}.cls-4{fill:#93c954;}.cls-5{fill:#aed473;}.cls-6{fill:#bcbcbc;}.cls-7{fill:#ea3f27;}.cls-8{fill:#ec6358;}.cls-9{stroke-width:1.47px;}.cls-10{fill:#5c9bd3;}</style></defs><title>Architecture</title><g id="_.NET_Core" data-name=".NET Core"><rect class="cls-1" x="64.08" y="162.51" width="360" height="153.58"/><path class="cls-2" d="M225.33,314.6a17.56,17.56,0,0,1,2.59-.2,5.41,5.41,0,0,1,3.82,1.18,4.35,4.35,0,0,1,1.33,3.39,5,5,0,0,1-1.36,3.67,5.82,5.82,0,0,1-4.17,1.36,19.6,19.6,0,0,1-2.21-.11Zm1.22,8.35a7.63,7.63,0,0,0,1.23.07c2.61,0,4-1.46,4-4,0-2.23-1.25-3.64-3.82-3.64a7,7,0,0,0-1.43.13Z" transform="translate(-16.99 -17.24)"/><path class="cls-2" d="M235.35,320.75a2.17,2.17,0,0,0,2.33,2.35,4.45,4.45,0,0,0,1.88-.35l.21.88a5.49,5.49,0,0,1-2.25.42,3.15,3.15,0,0,1-3.33-3.42c0-2,1.21-3.66,3.18-3.66,2.21,0,2.8,1.95,2.8,3.19a4.72,4.72,0,0,1,0,.57Zm3.61-.88a1.75,1.75,0,0,0-1.71-2,2,2,0,0,0-1.89,2Z" transform="translate(-16.99 -17.24)"/><path class="cls-2" d="M242.16,317.14l1.33,3.81a17.44,17.44,0,0,1,.55,1.74h0c.15-.56.35-1.12.57-1.74l1.32-3.81h1.29l-2.66,6.78h-1.18l-2.58-6.78Z" transform="translate(-16.99 -17.24)"/><path class="cls-2" d="M249.79,315.23a.76.76,0,0,1-1.53,0,.75.75,0,0,1,.77-.77A.73.73,0,0,1,249.79,315.23Zm-1.37,8.68v-6.78h1.23v6.78Z" transform="translate(-16.99 -17.24)"/><path class="cls-2" d="M251.52,322.66a3.23,3.23,0,0,0,1.63.49c.9,0,1.32-.45,1.32-1s-.35-.91-1.26-1.25c-1.22-.43-1.79-1.11-1.79-1.92a2.09,2.09,0,0,1,2.34-2,3.39,3.39,0,0,1,1.67.42l-.31.9a2.64,2.64,0,0,0-1.39-.39c-.73,0-1.13.42-1.13.92s.41.81,1.29,1.15c1.18.45,1.78,1,1.78,2,0,1.19-.92,2-2.54,2a3.87,3.87,0,0,1-1.91-.46Z" transform="translate(-16.99 -17.24)"/><path class="cls-2" d="M257.92,320.75a2.17,2.17,0,0,0,2.33,2.35,4.45,4.45,0,0,0,1.88-.35l.21.88a5.49,5.49,0,0,1-2.25.42,3.15,3.15,0,0,1-3.33-3.42c0-2,1.21-3.66,3.18-3.66,2.21,0,2.8,1.95,2.8,3.19a4.72,4.72,0,0,1,0,.57Zm3.61-.88a1.75,1.75,0,0,0-1.71-2,2,2,0,0,0-1.89,2Z" transform="translate(-16.99 -17.24)"/><path class="cls-2" d="M264.25,319.25c0-.8,0-1.49-.06-2.12h1.08l0,1.33h.06a2,2,0,0,1,1.88-1.48,1.32,1.32,0,0,1,.35,0v1.16a1.89,1.89,0,0,0-.42,0,1.73,1.73,0,0,0-1.65,1.58,3.54,3.54,0,0,0-.06.57v3.61h-1.22Z" transform="translate(-16.99 -17.24)"/><path class="cls-2" d="M278.43,323.61a6,6,0,0,1-2.49.45,4.41,4.41,0,0,1-4.67-4.78,4.7,4.7,0,0,1,4.93-5,5.06,5.06,0,0,1,2.24.42l-.29,1a4.44,4.44,0,0,0-1.91-.39c-2.21,0-3.68,1.41-3.68,3.89,0,2.31,1.33,3.8,3.63,3.8a4.88,4.88,0,0,0,2-.39Z" transform="translate(-16.99 -17.24)"/><path class="cls-2" d="M285.89,320.47a3.31,3.31,0,0,1-3.38,3.6,3.22,3.22,0,0,1-3.25-3.49,3.31,3.31,0,0,1,3.36-3.6A3.21,3.21,0,0,1,285.89,320.47Zm-5.38.07c0,1.49.85,2.61,2.06,2.61s2.06-1.11,2.06-2.63c0-1.15-.57-2.6-2-2.6S280.52,319.25,280.52,320.54Z" transform="translate(-16.99 -17.24)"/><path class="cls-2" d="M287.45,319.25c0-.8,0-1.49-.06-2.12h1.08l0,1.33h.06a2,2,0,0,1,1.88-1.48,1.31,1.31,0,0,1,.35,0v1.16a1.89,1.89,0,0,0-.42,0,1.73,1.73,0,0,0-1.65,1.58,3.54,3.54,0,0,0-.06.57v3.61h-1.22Z" transform="translate(-16.99 -17.24)"/><path class="cls-2" d="M292.57,320.75a2.17,2.17,0,0,0,2.33,2.35,4.45,4.45,0,0,0,1.88-.35l.21.88a5.49,5.49,0,0,1-2.25.42,3.15,3.15,0,0,1-3.33-3.42c0-2,1.21-3.66,3.18-3.66,2.21,0,2.8,1.95,2.8,3.19a4.72,4.72,0,0,1,0,.57Zm3.61-.88a1.75,1.75,0,0,0-1.71-2,2,2,0,0,0-1.89,2Z" transform="translate(-16.99 -17.24)"/><rect class="cls-3" x="304.47" y="168.17" width="113.39" height="119.06"/><rect class="cls-4" x="1.18" y="45.51" width="423.08" height="99.25"/><rect class="cls-5" x="10.2" y="55.03" width="406.08" height="26.65"/><path class="cls-2" d="M203.7,148.32H200v3.4h4.09v1h-5.31v-9.44h5.1v1H200v3h3.67Z" transform="translate(-16.99 -17.24)"/><path class="cls-2" d="M206.23,146l1,1.46c.25.38.46.73.69,1.11h0c.22-.41.45-.76.67-1.12l1-1.44h1.33l-2.31,3.28,2.38,3.5h-1.4l-1-1.53c-.27-.39-.49-.77-.73-1.18h0c-.22.41-.46.77-.71,1.18l-1,1.53h-1.36l2.41-3.46-2.3-3.32Z" transform="translate(-16.99 -17.24)"/><path class="cls-2" d="M213.81,144V146h1.76v.94h-1.76v3.66c0,.84.24,1.32.92,1.32a2.75,2.75,0,0,0,.71-.08l.06.92a3,3,0,0,1-1.09.17,1.71,1.71,0,0,1-1.33-.52,2.51,2.51,0,0,1-.48-1.77v-3.7h-1.05V146h1.05v-1.62Z" transform="translate(-16.99 -17.24)"/><path class="cls-2" d="M217.56,149.58a2.17,2.17,0,0,0,2.33,2.35,4.45,4.45,0,0,0,1.88-.35l.21.88a5.49,5.49,0,0,1-2.25.42,3.15,3.15,0,0,1-3.33-3.42c0-2,1.21-3.66,3.18-3.66,2.21,0,2.8,1.95,2.8,3.19a4.72,4.72,0,0,1,0,.57Zm3.61-.88a1.75,1.75,0,0,0-1.71-2,2,2,0,0,0-1.89,2Z" transform="translate(-16.99 -17.24)"/><path class="cls-2" d="M223.89,147.81c0-.7,0-1.28-.06-1.83h1.09l.07,1.12h0a2.49,2.49,0,0,1,2.24-1.27c.94,0,2.4.56,2.4,2.89v4h-1.23v-3.91c0-1.09-.41-2-1.57-2a1.75,1.75,0,0,0-1.65,1.26,1.78,1.78,0,0,0-.08.57v4.08h-1.23Z" transform="translate(-16.99 -17.24)"/><path class="cls-2" d="M231.49,151.49a3.23,3.23,0,0,0,1.63.49c.9,0,1.32-.45,1.32-1s-.35-.91-1.26-1.25c-1.22-.43-1.79-1.11-1.79-1.92a2.09,2.09,0,0,1,2.34-2,3.39,3.39,0,0,1,1.67.42l-.31.9a2.64,2.64,0,0,0-1.39-.39c-.73,0-1.13.42-1.13.92s.41.81,1.29,1.15c1.18.45,1.78,1,1.78,2,0,1.19-.92,2-2.54,2a3.87,3.87,0,0,1-1.91-.46Z" transform="translate(-16.99 -17.24)"/><path class="cls-2" d="M238.58,144.07a.76.76,0,0,1-1.53,0,.75.75,0,0,1,.77-.77A.73.73,0,0,1,238.58,144.07Zm-1.37,8.68V146h1.23v6.78Z" transform="translate(-16.99 -17.24)"/><path class="cls-2" d="M246.61,149.3a3.31,3.31,0,0,1-3.38,3.6,3.22,3.22,0,0,1-3.25-3.49,3.31,3.31,0,0,1,3.36-3.6A3.21,3.21,0,0,1,246.61,149.3Zm-5.38.07c0,1.49.85,2.61,2.06,2.61s2.06-1.11,2.06-2.63c0-1.15-.57-2.6-2-2.6S241.23,148.09,241.23,149.37Z" transform="translate(-16.99 -17.24)"/><path class="cls-2" d="M248.16,147.81c0-.7,0-1.28-.06-1.83h1.09l.07,1.12h0a2.49,2.49,0,0,1,2.24-1.27c.94,0,2.4.56,2.4,2.89v4H252.7v-3.91c0-1.09-.41-2-1.57-2a1.75,1.75,0,0,0-1.65,1.26,1.78,1.78,0,0,0-.08.57v4.08h-1.23Z" transform="translate(-16.99 -17.24)"/><path class="cls-2" d="M255.77,151.49a3.23,3.23,0,0,0,1.63.49c.9,0,1.32-.45,1.32-1s-.35-.91-1.26-1.25c-1.22-.43-1.79-1.11-1.79-1.92a2.09,2.09,0,0,1,2.34-2,3.39,3.39,0,0,1,1.67.42l-.31.9a2.64,2.64,0,0,0-1.39-.39c-.73,0-1.13.42-1.13.92s.41.81,1.29,1.15c1.18.45,1.78,1,1.78,2,0,1.19-.92,2-2.54,2a3.87,3.87,0,0,1-1.91-.46Z" transform="translate(-16.99 -17.24)"/><path class="cls-2" d="M214.88,82.53h-2v-.74h5v.74h-2.06v6h-.88Z" transform="translate(-16.99 -17.24)"/><path class="cls-2" d="M218.47,81.43h.88v3h0a1.63,1.63,0,0,1,.63-.62,1.81,1.81,0,0,1,.9-.25c.65,0,1.69.4,1.69,2.07v2.88h-.88V85.75c0-.78-.29-1.44-1.12-1.44a1.26,1.26,0,0,0-1.18.88,1.07,1.07,0,0,0-.06.42v2.92h-.88Z" transform="translate(-16.99 -17.24)"/><path class="cls-2" d="M224.51,86.27A1.55,1.55,0,0,0,226.17,88a3.19,3.19,0,0,0,1.34-.25l.15.63a3.91,3.91,0,0,1-1.61.3,2.25,2.25,0,0,1-2.38-2.44,2.35,2.35,0,0,1,2.27-2.61,2,2,0,0,1,2,2.28,3.36,3.36,0,0,1,0,.41Zm2.58-.63a1.25,1.25,0,0,0-1.22-1.43,1.46,1.46,0,0,0-1.35,1.43Z" transform="translate(-16.99 -17.24)"/><path class="cls-2" d="M229,85c0-.5,0-.91,0-1.31h.77l0,.78h0a1.67,1.67,0,0,1,1.52-.89,1.43,1.43,0,0,1,1.37,1h0a2,2,0,0,1,.54-.63,1.65,1.65,0,0,1,1.07-.34c.64,0,1.59.42,1.59,2.1v2.85h-.86V85.79c0-.93-.34-1.49-1-1.49a1.14,1.14,0,0,0-1,.8,1.44,1.44,0,0,0-.07.44v3h-.86v-2.9c0-.77-.34-1.33-1-1.33a1.31,1.31,0,0,0-1.16,1.31v2.92H229Z" transform="translate(-16.99 -17.24)"/><path class="cls-2" d="M237.86,86.27A1.55,1.55,0,0,0,239.52,88a3.19,3.19,0,0,0,1.34-.25l.15.63a3.91,3.91,0,0,1-1.61.3A2.25,2.25,0,0,1,237,86.19a2.35,2.35,0,0,1,2.27-2.61,2,2,0,0,1,2,2.28,3.34,3.34,0,0,1,0,.41Zm2.58-.63a1.25,1.25,0,0,0-1.22-1.43,1.46,1.46,0,0,0-1.35,1.43Z" transform="translate(-16.99 -17.24)"/><path class="cls-2" d="M242.26,87.63a2.3,2.3,0,0,0,1.16.35c.64,0,.94-.32.94-.72s-.25-.65-.9-.89c-.87-.31-1.28-.79-1.28-1.37a1.49,1.49,0,0,1,1.67-1.42,2.41,2.41,0,0,1,1.19.3l-.22.64a1.88,1.88,0,0,0-1-.28c-.52,0-.81.3-.81.66s.29.58.92.82c.84.32,1.27.74,1.27,1.46s-.66,1.45-1.81,1.45A2.76,2.76,0,0,1,242,88.3Z" transform="translate(-16.99 -17.24)"/><rect class="cls-5" x="10.83" y="90.32" width="130.39" height="26.65"/><path class="cls-2" d="M81.42,120.86c0-.94-.11-2.07-.1-2.91h0c-.23.79-.51,1.63-.85,2.56l-1.19,3.27h-.66l-1.09-3.21c-.32-.95-.59-1.82-.78-2.62h0c0,.84-.07,2-.13,3l-.18,2.89h-.83l.47-6.74h1.11l1.15,3.26c.28.83.51,1.57.68,2.27h0c.17-.68.41-1.42.71-2.27l1.2-3.26H82l.42,6.74h-.85Z" transform="translate(-16.99 -17.24)"/><path class="cls-2" d="M88.19,121.36a2.37,2.37,0,0,1-2.41,2.57,2.3,2.3,0,0,1-2.32-2.49,2.36,2.36,0,0,1,2.4-2.57A2.29,2.29,0,0,1,88.19,121.36Zm-3.84.05c0,1.06.61,1.86,1.47,1.86s1.47-.79,1.47-1.88c0-.82-.41-1.86-1.45-1.86S84.36,120.49,84.36,121.41Z" transform="translate(-16.99 -17.24)"/><path class="cls-2" d="M93.48,116.73v5.85c0,.43,0,.92,0,1.25h-.79l0-.84h0a1.79,1.79,0,0,1-1.65,1A2.21,2.21,0,0,1,89,121.47a2.31,2.31,0,0,1,2.17-2.6,1.62,1.62,0,0,1,1.46.74h0v-2.89ZM92.6,121a1.57,1.57,0,0,0,0-.37,1.29,1.29,0,0,0-1.27-1c-.91,0-1.45.8-1.45,1.87s.48,1.79,1.43,1.79a1.32,1.32,0,0,0,1.29-1,1.53,1.53,0,0,0,0-.38Z" transform="translate(-16.99 -17.24)"/><path class="cls-2" d="M99,122.5c0,.5,0,.94,0,1.32h-.78l0-.79h0a1.82,1.82,0,0,1-1.6.9c-.76,0-1.67-.42-1.67-2.12V119h.88v2.68c0,.92.28,1.54,1.08,1.54a1.27,1.27,0,0,0,1.16-.8,1.29,1.29,0,0,0,.08-.45v-3H99Z" transform="translate(-16.99 -17.24)"/><path class="cls-2" d="M100.46,116.73h.88v7.1h-.88Z" transform="translate(-16.99 -17.24)"/><path class="cls-2" d="M103.31,121.56a1.55,1.55,0,0,0,1.66,1.68,3.19,3.19,0,0,0,1.34-.25l.15.63a3.91,3.91,0,0,1-1.61.3,2.25,2.25,0,0,1-2.38-2.44,2.35,2.35,0,0,1,2.27-2.61,2,2,0,0,1,2,2.28,3.37,3.37,0,0,1,0,.41Zm2.58-.63a1.25,1.25,0,0,0-1.22-1.43,1.46,1.46,0,0,0-1.35,1.43Z" transform="translate(-16.99 -17.24)"/><path class="cls-2" d="M107.71,122.92a2.3,2.3,0,0,0,1.16.35c.64,0,.94-.32.94-.72s-.25-.65-.9-.89c-.87-.31-1.28-.79-1.28-1.37a1.49,1.49,0,0,1,1.67-1.42,2.41,2.41,0,0,1,1.19.3l-.22.64a1.88,1.88,0,0,0-1-.28c-.52,0-.81.3-.81.66s.29.58.92.82c.84.32,1.27.74,1.27,1.46s-.66,1.45-1.81,1.45a2.77,2.77,0,0,1-1.36-.33Z" transform="translate(-16.99 -17.24)"/><rect class="cls-5" x="148" y="90.41" width="130.39" height="26.65"/><path class="cls-2" d="M216.79,123.69A4.31,4.31,0,0,1,215,124a3.15,3.15,0,0,1-3.33-3.41,3.35,3.35,0,0,1,3.52-3.54,3.62,3.62,0,0,1,1.6.3l-.21.71a3.16,3.16,0,0,0-1.36-.28,2.5,2.5,0,0,0-2.63,2.78,2.45,2.45,0,0,0,2.59,2.71,3.48,3.48,0,0,0,1.42-.28Z" transform="translate(-16.99 -17.24)"/><path class="cls-2" d="M222.12,121.45a2.37,2.37,0,0,1-2.41,2.57,2.3,2.3,0,0,1-2.32-2.49,2.36,2.36,0,0,1,2.4-2.57A2.29,2.29,0,0,1,222.12,121.45Zm-3.84.05c0,1.06.61,1.86,1.47,1.86s1.47-.79,1.47-1.88c0-.82-.41-1.86-1.45-1.86S218.28,120.58,218.28,121.5Z" transform="translate(-16.99 -17.24)"/><path class="cls-2" d="M223.23,120.38c0-.5,0-.91,0-1.31H224l0,.8h0a1.78,1.78,0,0,1,1.6-.91c.67,0,1.71.4,1.71,2.06v2.89h-.88v-2.79c0-.78-.29-1.43-1.12-1.43a1.25,1.25,0,0,0-1.18.9,1.27,1.27,0,0,0-.06.41v2.91h-.88Z" transform="translate(-16.99 -17.24)"/><path class="cls-2" d="M229.8,117.68v1.39h1.26v.67H229.8v2.61c0,.6.17.94.66.94a2,2,0,0,0,.51-.06l0,.66a2.17,2.17,0,0,1-.78.12,1.22,1.22,0,0,1-.95-.37,1.79,1.79,0,0,1-.34-1.26v-2.64h-.75v-.67h.75v-1.16Z" transform="translate(-16.99 -17.24)"/><path class="cls-2" d="M232.48,121.65a1.55,1.55,0,0,0,1.66,1.68,3.19,3.19,0,0,0,1.34-.25l.15.63a3.91,3.91,0,0,1-1.61.3,2.25,2.25,0,0,1-2.38-2.44,2.35,2.35,0,0,1,2.27-2.61,2,2,0,0,1,2,2.28,3.37,3.37,0,0,1,0,.41Zm2.58-.63a1.25,1.25,0,0,0-1.22-1.43,1.46,1.46,0,0,0-1.35,1.43Z" transform="translate(-16.99 -17.24)"/><path class="cls-2" d="M237,120.38c0-.5,0-.91,0-1.31h.78l0,.8h0a1.78,1.78,0,0,1,1.6-.91c.67,0,1.71.4,1.71,2.06v2.89h-.88v-2.79c0-.78-.29-1.43-1.12-1.43a1.25,1.25,0,0,0-1.18.9,1.26,1.26,0,0,0-.06.41v2.91H237Z" transform="translate(-16.99 -17.24)"/><path class="cls-2" d="M243.57,117.68v1.39h1.26v.67h-1.26v2.61c0,.6.17.94.66.94a2,2,0,0,0,.51-.06l0,.66a2.17,2.17,0,0,1-.78.12,1.22,1.22,0,0,1-.95-.37,1.79,1.79,0,0,1-.34-1.26v-2.64H242v-.67h.75v-1.16Z" transform="translate(-16.99 -17.24)"/><path class="cls-2" d="M245.7,123a2.3,2.3,0,0,0,1.16.35c.64,0,.94-.32.94-.72s-.25-.65-.9-.89c-.87-.31-1.28-.79-1.28-1.37a1.49,1.49,0,0,1,1.67-1.42,2.42,2.42,0,0,1,1.19.3l-.22.64a1.88,1.88,0,0,0-1-.28c-.52,0-.81.3-.81.66s.29.58.92.82c.84.32,1.27.74,1.27,1.46S248,124,246.84,124a2.77,2.77,0,0,1-1.36-.33Z" transform="translate(-16.99 -17.24)"/><rect class="cls-5" x="285.42" y="90.53" width="130.39" height="26.65"/><path class="cls-2" d="M352.19,117.29h.87v6h2.88V124h-3.75Z" transform="translate(-16.99 -17.24)"/><path class="cls-2" d="M359.56,124l-.07-.61h0a1.8,1.8,0,0,1-1.48.72,1.38,1.38,0,0,1-1.48-1.39c0-1.17,1-1.81,2.91-1.8v-.1a1,1,0,0,0-1.1-1.12,2.4,2.4,0,0,0-1.26.36l-.2-.58a3,3,0,0,1,1.59-.43c1.48,0,1.84,1,1.84,2v1.81a6.86,6.86,0,0,0,.08,1.16Zm-.13-2.47c-1,0-2,.15-2,1.09a.78.78,0,0,0,.83.84,1.2,1.2,0,0,0,1.17-.81.91.91,0,0,0,.05-.28Z" transform="translate(-16.99 -17.24)"/><path class="cls-2" d="M361.94,119.19l1.06,2.86c.11.32.23.7.31,1h0c.09-.29.19-.66.31-1l1-2.84h.93l-1.32,3.45a7.37,7.37,0,0,1-1.66,3,2.38,2.38,0,0,1-1.08.57l-.22-.74a2.3,2.3,0,0,0,.77-.43,2.66,2.66,0,0,0,.74-1,.62.62,0,0,0,.07-.21.76.76,0,0,0-.06-.23L361,119.19Z" transform="translate(-16.99 -17.24)"/><path class="cls-2" d="M370.61,121.57a2.36,2.36,0,0,1-2.41,2.57,2.3,2.3,0,0,1-2.32-2.49,2.36,2.36,0,0,1,2.4-2.57A2.29,2.29,0,0,1,370.61,121.57Zm-3.84.05c0,1.06.61,1.86,1.47,1.86s1.47-.79,1.47-1.88c0-.82-.41-1.86-1.45-1.86S366.77,120.7,366.77,121.62Z" transform="translate(-16.99 -17.24)"/><path class="cls-2" d="M375.77,122.71c0,.5,0,.94,0,1.32H375l0-.79h0a1.82,1.82,0,0,1-1.6.9c-.76,0-1.67-.42-1.67-2.12v-2.83h.88v2.68c0,.92.28,1.54,1.08,1.54a1.27,1.27,0,0,0,1.16-.8,1.29,1.29,0,0,0,.08-.45v-3h.88Z" transform="translate(-16.99 -17.24)"/><path class="cls-2" d="M378.29,117.8v1.39h1.26v.67h-1.26v2.61c0,.6.17.94.66.94a2,2,0,0,0,.51-.06l0,.66a2.17,2.17,0,0,1-.78.12,1.22,1.22,0,0,1-.95-.37,1.79,1.79,0,0,1-.34-1.26v-2.64h-.75v-.67h.75V118Z" transform="translate(-16.99 -17.24)"/><path class="cls-2" d="M380.42,123.13a2.3,2.3,0,0,0,1.16.35c.64,0,.94-.32.94-.72s-.25-.65-.9-.89c-.87-.31-1.28-.79-1.28-1.37a1.49,1.49,0,0,1,1.67-1.42,2.41,2.41,0,0,1,1.19.3L383,120a1.88,1.88,0,0,0-1-.28c-.52,0-.81.3-.81.66s.29.58.92.82c.84.32,1.27.74,1.27,1.46s-.66,1.45-1.81,1.45a2.76,2.76,0,0,1-1.36-.33Z" transform="translate(-16.99 -17.24)"/><rect class="cls-6" x="226.09" y="332.25" width="198.43" height="28.35"/><path class="cls-2" d="M326.36,363.35h-3.67v3.4h4.09v1h-5.31v-9.44h5.1v1h-3.88v3h3.67Z" transform="translate(-16.99 -17.24)"/><path class="cls-2" d="M328.36,358.33h5.08v1h-3.87v3.14h3.57v1h-3.57v4.27h-1.22Z" transform="translate(-16.99 -17.24)"/><path class="cls-2" d="M344.74,367.46a6,6,0,0,1-2.49.45,4.41,4.41,0,0,1-4.67-4.78,4.7,4.7,0,0,1,4.93-5,5.06,5.06,0,0,1,2.24.42l-.29,1a4.44,4.44,0,0,0-1.91-.39c-2.21,0-3.68,1.41-3.68,3.89,0,2.31,1.33,3.8,3.63,3.8a4.88,4.88,0,0,0,2-.39Z" transform="translate(-16.99 -17.24)"/><path class="cls-2" d="M352.2,364.33a3.31,3.31,0,0,1-3.38,3.6,3.22,3.22,0,0,1-3.25-3.49,3.31,3.31,0,0,1,3.36-3.6A3.21,3.21,0,0,1,352.2,364.33Zm-5.38.07c0,1.49.85,2.61,2.06,2.61s2.06-1.11,2.06-2.63c0-1.15-.57-2.6-2-2.6S346.83,363.11,346.83,364.4Z" transform="translate(-16.99 -17.24)"/><path class="cls-2" d="M353.75,363.11c0-.8,0-1.49-.06-2.12h1.08l0,1.33h.06a2,2,0,0,1,1.88-1.48,1.31,1.31,0,0,1,.35,0V362a1.89,1.89,0,0,0-.42,0,1.73,1.73,0,0,0-1.65,1.58,3.54,3.54,0,0,0-.06.57v3.61h-1.22Z" transform="translate(-16.99 -17.24)"/><path class="cls-2" d="M358.88,364.61A2.17,2.17,0,0,0,361.2,367a4.45,4.45,0,0,0,1.88-.35l.21.88a5.49,5.49,0,0,1-2.25.42,3.15,3.15,0,0,1-3.33-3.42c0-2,1.21-3.66,3.18-3.66,2.21,0,2.8,1.95,2.8,3.19a4.72,4.72,0,0,1,0,.57Zm3.61-.88a1.75,1.75,0,0,0-1.71-2,2,2,0,0,0-1.89,2Z" transform="translate(-16.99 -17.24)"/><rect class="cls-6" x="1.48" y="333.08" width="198.43" height="28.35"/><path class="cls-2" d="M100,364.64l-1,3H97.76l3.21-9.44h1.47l3.22,9.44h-1.3l-1-3Zm3.1-1-.92-2.72c-.21-.62-.35-1.18-.49-1.72h0c-.14.56-.29,1.13-.48,1.71l-.92,2.73Z" transform="translate(-16.99 -17.24)"/><path class="cls-2" d="M106.87,366.12a4.32,4.32,0,0,0,2.19.62c1.25,0,2-.66,2-1.61s-.5-1.39-1.78-1.88c-1.54-.55-2.49-1.34-2.49-2.68S108,358,109.81,358a4.29,4.29,0,0,1,2.09.46l-.34,1a3.76,3.76,0,0,0-1.79-.45c-1.29,0-1.78.77-1.78,1.42,0,.88.57,1.32,1.88,1.82,1.6.62,2.41,1.39,2.41,2.77s-1.08,2.72-3.31,2.72a4.88,4.88,0,0,1-2.41-.6Z" transform="translate(-16.99 -17.24)"/><path class="cls-2" d="M113.94,358.28a14.18,14.18,0,0,1,2.34-.18,3.88,3.88,0,0,1,2.65.78,2.54,2.54,0,0,1,.83,2,2.78,2.78,0,0,1-.73,2,3.91,3.91,0,0,1-2.89,1,4.18,4.18,0,0,1-1-.08v3.78h-1.22Zm1.22,4.55a4.13,4.13,0,0,0,1,.1c1.47,0,2.37-.71,2.37-2s-.88-1.85-2.23-1.85a5.07,5.07,0,0,0-1.15.1Z" transform="translate(-16.99 -17.24)"/><path class="cls-2" d="M119.09,366.88a.83.83,0,0,1,.84-.88.88.88,0,1,1-.84.88Z" transform="translate(-16.99 -17.24)"/><path class="cls-2" d="M122.33,367.61v-9.44h1.33l3,4.78a26.71,26.71,0,0,1,1.69,3.07h0c-.11-1.26-.14-2.41-.14-3.88v-4h1.15v9.44h-1.23l-3-4.79a29.89,29.89,0,0,1-1.76-3.15h0c.07,1.19.1,2.33.1,3.89v4Z" transform="translate(-16.99 -17.24)"/><path class="cls-2" d="M136.43,363.18h-3.67v3.4h4.09v1h-5.31v-9.44h5.1v1h-3.88v3h3.67Z" transform="translate(-16.99 -17.24)"/><path class="cls-2" d="M140.44,359.2h-2.87v-1h7v1h-2.89v8.4h-1.23Z" transform="translate(-16.99 -17.24)"/><path class="cls-2" d="M155.18,367.3a6,6,0,0,1-2.49.45A4.41,4.41,0,0,1,148,363a4.7,4.7,0,0,1,4.93-5,5.06,5.06,0,0,1,2.24.42l-.29,1A4.44,4.44,0,0,0,153,359c-2.21,0-3.68,1.41-3.68,3.89,0,2.31,1.33,3.8,3.63,3.8a4.88,4.88,0,0,0,2-.39Z" transform="translate(-16.99 -17.24)"/><path class="cls-2" d="M162.64,364.16a3.31,3.31,0,0,1-3.38,3.6,3.22,3.22,0,0,1-3.25-3.49,3.31,3.31,0,0,1,3.36-3.6A3.21,3.21,0,0,1,162.64,364.16Zm-5.38.07c0,1.49.85,2.61,2.06,2.61s2.06-1.11,2.06-2.63c0-1.15-.57-2.6-2-2.6S157.26,362.94,157.26,364.23Z" transform="translate(-16.99 -17.24)"/><path class="cls-2" d="M164.19,362.94c0-.8,0-1.49-.06-2.12h1.08l0,1.33h.06a2,2,0,0,1,1.88-1.48,1.31,1.31,0,0,1,.35,0v1.16a1.89,1.89,0,0,0-.42,0,1.73,1.73,0,0,0-1.65,1.58,3.54,3.54,0,0,0-.06.57v3.61h-1.22Z" transform="translate(-16.99 -17.24)"/><path class="cls-2" d="M169.31,364.44a2.17,2.17,0,0,0,2.33,2.35,4.45,4.45,0,0,0,1.88-.35l.21.88a5.49,5.49,0,0,1-2.25.42,3.15,3.15,0,0,1-3.33-3.42c0-2,1.21-3.66,3.18-3.66,2.21,0,2.8,1.95,2.8,3.19a4.72,4.72,0,0,1,0,.57Zm3.61-.88a1.75,1.75,0,0,0-1.71-2,2,2,0,0,0-1.89,2Z" transform="translate(-16.99 -17.24)"/><rect class="cls-7" x="-13.8" y="243.02" width="153.89" height="26.65" transform="translate(302.5 175.96) rotate(90)"/><path class="cls-2" d="M64.83,290.87a4.31,4.31,0,0,1,.32,1.78A3.15,3.15,0,0,1,61.74,296a3.35,3.35,0,0,1-3.54-3.52,3.63,3.63,0,0,1,.3-1.6l.71.21a3.16,3.16,0,0,0-.28,1.36,2.51,2.51,0,0,0,2.78,2.63,2.45,2.45,0,0,0,2.71-2.59,3.48,3.48,0,0,0-.28-1.42Z" transform="translate(-16.99 -17.24)"/><path class="cls-2" d="M58,289.8v-.88h7.1v.88Z" transform="translate(-16.99 -17.24)"/><path class="cls-2" d="M58.86,286.46a.54.54,0,0,1,0,1.09.54.54,0,0,1-.55-.55A.52.52,0,0,1,58.86,286.46Zm6.2,1H60.22v-.88h4.84Z" transform="translate(-16.99 -17.24)"/><path class="cls-2" d="M62.8,284.62A1.55,1.55,0,0,0,64.48,283a3.18,3.18,0,0,0-.25-1.34l.63-.15a3.9,3.9,0,0,1,.3,1.61,2.25,2.25,0,0,1-2.44,2.38,2.35,2.35,0,0,1-2.61-2.27,2,2,0,0,1,2.28-2,3.39,3.39,0,0,1,.41,0ZM62.17,282a1.25,1.25,0,0,0-1.43,1.22,1.46,1.46,0,0,0,1.43,1.35Z" transform="translate(-16.99 -17.24)"/><path class="cls-2" d="M61.53,280.1c-.5,0-.91,0-1.31,0v-.78l.8,0v0a1.78,1.78,0,0,1-.91-1.6c0-.67.4-1.71,2.06-1.71h2.89v.88H62.28c-.78,0-1.43.29-1.43,1.12a1.29,1.29,0,0,0,1.31,1.24h2.91v.88Z" transform="translate(-16.99 -17.24)"/><path class="cls-2" d="M58.84,273.52h1.39v-1.26h.67v1.26h2.61c.6,0,.94-.17.94-.66a2,2,0,0,0-.06-.51l.66,0a2.19,2.19,0,0,1,.12.78,1.22,1.22,0,0,1-.37.95,1.79,1.79,0,0,1-1.26.34H60.9v.75h-.67v-.75H59.07Z" transform="translate(-16.99 -17.24)"/><path class="cls-2" d="M58.42,269.12a12.44,12.44,0,0,1-.14-1.85,3.85,3.85,0,0,1,.84-2.73,3.1,3.1,0,0,1,2.42-.95,3.56,3.56,0,0,1,2.62,1,4.16,4.16,0,0,1,1,3,14,14,0,0,1-.08,1.58Zm6-.86a5.48,5.48,0,0,0,.05-.88,2.59,2.59,0,0,0-2.86-2.87,2.4,2.4,0,0,0-2.6,2.73,5,5,0,0,0,.09,1Z" transform="translate(-16.99 -17.24)"/><path class="cls-2" d="M62.82,262a1.55,1.55,0,0,0,1.68-1.66,3.19,3.19,0,0,0-.25-1.34l.63-.15a3.92,3.92,0,0,1,.3,1.61,2.25,2.25,0,0,1-2.44,2.38,2.35,2.35,0,0,1-2.61-2.27,2,2,0,0,1,2.28-2,3.34,3.34,0,0,1,.41,0Zm-.63-2.58a1.25,1.25,0,0,0-1.43,1.22A1.46,1.46,0,0,0,62.19,262Z" transform="translate(-16.99 -17.24)"/><path class="cls-2" d="M61.82,257.45c-.62,0-1.12,0-1.58,0v-.79l.83,0v0a1.9,1.9,0,0,1-.94-1.72,2.19,2.19,0,0,1,2.46-2c1.74,0,2.6,1.06,2.6,2.2a1.7,1.7,0,0,1-.76,1.49v0h2.63v.87Zm1.29-.87a2,2,0,0,0,.36,0,1.36,1.36,0,0,0,1-1.32c0-.93-.76-1.47-1.87-1.47s-1.8.51-1.8,1.44a1.4,1.4,0,0,0,1.09,1.33,1.46,1.46,0,0,0,.36.06Z" transform="translate(-16.99 -17.24)"/><path class="cls-2" d="M62.83,251.27a1.55,1.55,0,0,0,1.68-1.66,3.18,3.18,0,0,0-.25-1.34l.63-.15a3.9,3.9,0,0,1,.3,1.61,2.25,2.25,0,0,1-2.44,2.38,2.35,2.35,0,0,1-2.61-2.27,2,2,0,0,1,2.28-2,3.39,3.39,0,0,1,.41,0Zm-.63-2.58a1.25,1.25,0,0,0-1.43,1.22,1.46,1.46,0,0,0,1.43,1.35Z" transform="translate(-16.99 -17.24)"/><path class="cls-2" d="M61.56,246.75c-.5,0-.91,0-1.31,0V246l.8,0v0a1.78,1.78,0,0,1-.91-1.6c0-.67.4-1.71,2.06-1.71h2.89v.88H62.31c-.78,0-1.43.29-1.43,1.12a1.25,1.25,0,0,0,.9,1.18,1.29,1.29,0,0,0,.41.06h2.91v.88Z" transform="translate(-16.99 -17.24)"/><path class="cls-2" d="M58,237h5.85c.43,0,.92,0,1.25,0v.79l-.84,0v0a1.79,1.79,0,0,1,.95,1.65,2.21,2.21,0,0,1-2.46,2.07,2.31,2.31,0,0,1-2.6-2.17,1.62,1.62,0,0,1,.74-1.46v0H58Zm4.23.88a1.49,1.49,0,0,0-.37,0,1.29,1.29,0,0,0-1,1.27c0,.91.8,1.45,1.87,1.45s1.79-.48,1.79-1.43a1.32,1.32,0,0,0-1-1.29,1.51,1.51,0,0,0-.38,0Z" transform="translate(-16.99 -17.24)"/><path class="cls-2" d="M62.84,235.07a1.55,1.55,0,0,0,1.68-1.66,3.21,3.21,0,0,0-.25-1.34l.63-.15a3.9,3.9,0,0,1,.3,1.61,2.25,2.25,0,0,1-2.44,2.38,2.35,2.35,0,0,1-2.61-2.27,2,2,0,0,1,2.28-2,3.34,3.34,0,0,1,.41,0Zm-.63-2.58a1.25,1.25,0,0,0-1.43,1.22,1.46,1.46,0,0,0,1.43,1.35Z" transform="translate(-16.99 -17.24)"/><path class="cls-2" d="M61.58,230.55c-.5,0-.91,0-1.31,0v-.78l.8,0v0a1.78,1.78,0,0,1-.91-1.6c0-.67.4-1.71,2.06-1.71h2.89v.88H62.32c-.78,0-1.43.29-1.43,1.12a1.29,1.29,0,0,0,1.31,1.24h2.91v.88Z" transform="translate(-16.99 -17.24)"/><path class="cls-2" d="M64.93,221.55a3.22,3.22,0,0,1,.28,1.39,2.3,2.3,0,0,1-2.47,2.41,2.46,2.46,0,0,1-2.57-2.6,3,3,0,0,1,.25-1.22l.68.2a2,2,0,0,0-.23,1,1.67,1.67,0,0,0,1.83,1.71,1.66,1.66,0,0,0,1.81-1.68,2.48,2.48,0,0,0-.24-1.08Z" transform="translate(-16.99 -17.24)"/><path class="cls-2" d="M60.28,220,63.14,219c.32-.11.7-.23,1-.31v0c-.29-.09-.66-.19-1-.31l-2.84-1v-.93l3.45,1.32a7.36,7.36,0,0,1,3,1.66,2.38,2.38,0,0,1,.57,1.08l-.74.22a2.31,2.31,0,0,0-.43-.77,2.66,2.66,0,0,0-1-.74.6.6,0,0,0-.21-.07.76.76,0,0,0-.23.06L60.28,221Z" transform="translate(-16.99 -17.24)"/><rect class="cls-7" x="-46.63" y="242.52" width="153.89" height="26.65" transform="translate(269.17 208.29) rotate(90)"/><path class="cls-2" d="M33,271.23a4.31,4.31,0,0,1,.32,1.78,3.15,3.15,0,0,1-3.42,3.32,3.35,3.35,0,0,1-3.53-3.53,3.62,3.62,0,0,1,.3-1.6l.71.21a3.18,3.18,0,0,0-.28,1.36,2.5,2.5,0,0,0,2.77,2.63,2.45,2.45,0,0,0,2.71-2.58,3.45,3.45,0,0,0-.28-1.42Z" transform="translate(-16.99 -17.24)"/><path class="cls-2" d="M30.77,265.89a2.37,2.37,0,0,1,2.56,2.41,2.3,2.3,0,0,1-2.49,2.31,2.36,2.36,0,0,1-2.56-2.4A2.29,2.29,0,0,1,30.77,265.89Zm0,3.84c1.06,0,1.86-.61,1.86-1.46s-.79-1.47-1.88-1.47c-.82,0-1.86.41-1.86,1.45S29.89,269.73,30.81,269.73Z" transform="translate(-16.99 -17.24)"/><path class="cls-2" d="M29.7,264.78c-.5,0-.91,0-1.31,0V264l.78,0v0a1.67,1.67,0,0,1-.89-1.52,1.43,1.43,0,0,1,1-1.37v0a2,2,0,0,1-.63-.54,1.65,1.65,0,0,1-.34-1.07c0-.64.42-1.59,2.1-1.58h2.85v.86H30.5c-.93,0-1.49.34-1.49,1a1.14,1.14,0,0,0,.8,1,1.43,1.43,0,0,0,.44.07h3v.86h-2.9c-.77,0-1.33.34-1.33,1a1.2,1.2,0,0,0,.88,1.09,1.22,1.22,0,0,0,.43.07h2.92v.86Z" transform="translate(-16.99 -17.24)"/><path class="cls-2" d="M29.72,256.44c-.5,0-.91,0-1.31,0v-.77l.78,0v0a1.66,1.66,0,0,1-.89-1.52,1.43,1.43,0,0,1,1-1.37v0a2,2,0,0,1-.63-.54,1.65,1.65,0,0,1-.34-1.07c0-.64.42-1.59,2.1-1.58h2.85v.86H30.52c-.93,0-1.49.34-1.49,1a1.14,1.14,0,0,0,.8,1,1.44,1.44,0,0,0,.44.07h3v.86h-2.9c-.77,0-1.33.34-1.33,1a1.2,1.2,0,0,0,.88,1.09,1.22,1.22,0,0,0,.43.07h2.92v.86Z" transform="translate(-16.99 -17.24)"/><path class="cls-2" d="M30.82,243.72a2.37,2.37,0,0,1,2.56,2.41,2.3,2.3,0,0,1-2.49,2.31,2.36,2.36,0,0,1-2.56-2.4A2.29,2.29,0,0,1,30.82,243.72Zm0,3.84c1.06,0,1.86-.61,1.86-1.46s-.79-1.47-1.88-1.47c-.82,0-1.86.41-1.86,1.45S29.94,247.56,30.86,247.56Z" transform="translate(-16.99 -17.24)"/><path class="cls-2" d="M29.75,242.61c-.5,0-.91,0-1.31,0v-.77l.78,0v0a1.66,1.66,0,0,1-.89-1.52,1.43,1.43,0,0,1,1-1.37v0a2,2,0,0,1-.63-.54,1.65,1.65,0,0,1-.34-1.07c0-.64.42-1.59,2.1-1.58h2.85v.86H30.55c-.93,0-1.49.34-1.49,1a1.14,1.14,0,0,0,.8,1,1.41,1.41,0,0,0,.44.07h3v.86h-2.9c-.77,0-1.33.34-1.33,1a1.2,1.2,0,0,0,.88,1.09,1.22,1.22,0,0,0,.43.07h2.92v.86Z" transform="translate(-16.99 -17.24)"/><rect class="cls-8" x="310.14" y="175.57" width="102.05" height="26.32"/><path class="cls-2" d="M347.12,205.95c0-.94-.11-2.07-.1-2.91h0c-.23.79-.51,1.63-.85,2.56L345,208.87h-.66l-1.09-3.21c-.32-.95-.59-1.82-.78-2.62h0c0,.84-.07,2-.13,3l-.18,2.89h-.83l.47-6.74h1.11l1.15,3.26c.28.83.51,1.57.68,2.27h0c.17-.68.41-1.42.71-2.27l1.2-3.26h1.11l.42,6.74h-.85Z" transform="translate(-16.99 -17.24)"/><path class="cls-2" d="M353.89,206.45a2.36,2.36,0,0,1-2.41,2.57,2.3,2.3,0,0,1-2.32-2.49,2.36,2.36,0,0,1,2.4-2.57A2.29,2.29,0,0,1,353.89,206.45Zm-3.84.05c0,1.06.61,1.86,1.47,1.86s1.47-.79,1.47-1.88c0-.82-.41-1.86-1.45-1.86S350.05,205.58,350.05,206.5Z" transform="translate(-16.99 -17.24)"/><path class="cls-2" d="M359.18,201.81v5.85c0,.43,0,.92,0,1.25h-.79l0-.84h0a1.79,1.79,0,0,1-1.65,1,2.21,2.21,0,0,1-2.07-2.46,2.31,2.31,0,0,1,2.17-2.6,1.62,1.62,0,0,1,1.46.74h0v-2.89ZM358.3,206a1.59,1.59,0,0,0,0-.37,1.29,1.29,0,0,0-1.27-1c-.91,0-1.45.8-1.45,1.87s.48,1.79,1.43,1.79a1.32,1.32,0,0,0,1.29-1,1.55,1.55,0,0,0,0-.38Z" transform="translate(-16.99 -17.24)"/><path class="cls-2" d="M364.69,207.59c0,.5,0,.94,0,1.32H364l0-.79h0a1.82,1.82,0,0,1-1.6.9c-.76,0-1.67-.42-1.67-2.12v-2.83h.88v2.68c0,.92.28,1.54,1.08,1.54a1.27,1.27,0,0,0,1.16-.8,1.29,1.29,0,0,0,.08-.45v-3h.88Z" transform="translate(-16.99 -17.24)"/><path class="cls-2" d="M366.15,201.81H367v7.1h-.88Z" transform="translate(-16.99 -17.24)"/><path class="cls-2" d="M369,206.65a1.55,1.55,0,0,0,1.66,1.68,3.18,3.18,0,0,0,1.34-.25l.15.63a3.91,3.91,0,0,1-1.61.3,2.25,2.25,0,0,1-2.38-2.44,2.35,2.35,0,0,1,2.27-2.61,2,2,0,0,1,2,2.28,3.39,3.39,0,0,1,0,.41Zm2.58-.63a1.25,1.25,0,0,0-1.22-1.43A1.46,1.46,0,0,0,369,206Z" transform="translate(-16.99 -17.24)"/><path class="cls-2" d="M381.35,205.95c0-.94-.11-2.07-.1-2.91h0c-.23.79-.51,1.63-.85,2.56l-1.19,3.27h-.66l-1.09-3.21c-.32-.95-.59-1.82-.78-2.62h0c0,.84-.07,2-.13,3l-.18,2.89h-.83l.47-6.74h1.11l1.15,3.26c.28.83.51,1.57.68,2.27h0c.17-.68.41-1.42.71-2.27l1.2-3.26h1.11l.42,6.74h-.85Z" transform="translate(-16.99 -17.24)"/><path class="cls-2" d="M384.78,202.71a.54.54,0,0,1-1.09,0,.54.54,0,0,1,.55-.55A.52.52,0,0,1,384.78,202.71Zm-1,6.2v-4.84h.88v4.84Z" transform="translate(-16.99 -17.24)"/><path class="cls-2" d="M390.31,204.07c0,.35,0,.74,0,1.33v2.81a2.78,2.78,0,0,1-.69,2.21,2.56,2.56,0,0,1-1.76.58,3.13,3.13,0,0,1-1.61-.4l.22-.67a2.72,2.72,0,0,0,1.42.38c.9,0,1.56-.47,1.56-1.69v-.54h0a1.73,1.73,0,0,1-1.54.81,2.16,2.16,0,0,1-2.06-2.36A2.32,2.32,0,0,1,388,204a1.61,1.61,0,0,1,1.51.84h0l0-.73ZM389.4,206a1.25,1.25,0,0,0,0-.4,1.27,1.27,0,0,0-1.23-.93c-.84,0-1.44.71-1.44,1.83,0,.95.48,1.74,1.43,1.74a1.29,1.29,0,0,0,1.22-.9,1.54,1.54,0,0,0,.07-.47Z" transform="translate(-16.99 -17.24)"/><path class="cls-2" d="M391.67,205.58c0-.57,0-1.06,0-1.51h.77l0,.95h0a1.45,1.45,0,0,1,1.34-1.06.93.93,0,0,1,.25,0v.83a1.34,1.34,0,0,0-.3,0,1.23,1.23,0,0,0-1.18,1.13,2.53,2.53,0,0,0,0,.41v2.58h-.87Z" transform="translate(-16.99 -17.24)"/><path class="cls-2" d="M397.57,208.91l-.07-.61h0A1.8,1.8,0,0,1,396,209a1.38,1.38,0,0,1-1.48-1.39c0-1.17,1-1.81,2.91-1.8v-.1a1,1,0,0,0-1.1-1.12,2.4,2.4,0,0,0-1.26.36l-.2-.58a3,3,0,0,1,1.59-.43c1.48,0,1.84,1,1.84,2v1.81a6.86,6.86,0,0,0,.08,1.16Zm-.13-2.47c-1,0-2,.15-2,1.09a.78.78,0,0,0,.83.84,1.2,1.2,0,0,0,1.17-.81.91.91,0,0,0,.05-.28Z" transform="translate(-16.99 -17.24)"/><path class="cls-2" d="M400.73,202.68v1.39H402v.67h-1.26v2.61c0,.6.17.94.66.94a1.94,1.94,0,0,0,.51-.06l0,.66a2.17,2.17,0,0,1-.78.12,1.22,1.22,0,0,1-.95-.37,1.79,1.79,0,0,1-.34-1.26v-2.64h-.75v-.67h.75v-1.16Z" transform="translate(-16.99 -17.24)"/><path class="cls-2" d="M404,202.71a.54.54,0,0,1-1.09,0,.54.54,0,0,1,.55-.55A.52.52,0,0,1,404,202.71Zm-1,6.2v-4.84h.88v4.84Z" transform="translate(-16.99 -17.24)"/><path class="cls-2" d="M409.7,206.45a2.36,2.36,0,0,1-2.41,2.57,2.3,2.3,0,0,1-2.32-2.49,2.36,2.36,0,0,1,2.4-2.57A2.29,2.29,0,0,1,409.7,206.45Zm-3.84.05c0,1.06.61,1.86,1.47,1.86s1.47-.79,1.47-1.88c0-.82-.41-1.86-1.45-1.86S405.86,205.58,405.86,206.5Z" transform="translate(-16.99 -17.24)"/><path class="cls-2" d="M410.81,205.38c0-.5,0-.91,0-1.31h.78l0,.8h0a1.78,1.78,0,0,1,1.6-.91c.67,0,1.71.4,1.71,2.06v2.89h-.88v-2.79c0-.78-.29-1.43-1.12-1.43a1.25,1.25,0,0,0-1.18.9,1.26,1.26,0,0,0-.06.41v2.91h-.88Z" transform="translate(-16.99 -17.24)"/><rect class="cls-8" x="310.14" y="205.74" width="102.05" height="26.23"/><path class="cls-2" d="M343.47,232.37a10,10,0,0,1,1.67-.13,2.77,2.77,0,0,1,1.89.56,1.81,1.81,0,0,1,.59,1.41,2,2,0,0,1-.52,1.44,2.79,2.79,0,0,1-2.06.74,3,3,0,0,1-.7-.06V239h-.87Zm.87,3.25a2.93,2.93,0,0,0,.72.07c1,0,1.69-.51,1.69-1.44s-.63-1.32-1.59-1.32a3.65,3.65,0,0,0-.82.07Z" transform="translate(-16.99 -17.24)"/><path class="cls-2" d="M348.71,231.93h.88V239h-.88Z" transform="translate(-16.99 -17.24)"/><path class="cls-2" d="M353.75,239l-.07-.61h0a1.8,1.8,0,0,1-1.48.72,1.38,1.38,0,0,1-1.48-1.39c0-1.17,1-1.81,2.91-1.8v-.1a1,1,0,0,0-1.1-1.12,2.4,2.4,0,0,0-1.26.36l-.2-.58a3,3,0,0,1,1.59-.43c1.48,0,1.84,1,1.84,2v1.81a6.85,6.85,0,0,0,.08,1.16Zm-.13-2.47c-1,0-2,.15-2,1.09a.78.78,0,0,0,.83.84,1.2,1.2,0,0,0,1.17-.81.91.91,0,0,0,0-.28Z" transform="translate(-16.99 -17.24)"/><path class="cls-2" d="M356.91,232.8v1.39h1.26v.67h-1.26v2.61c0,.6.17.94.66.94a2,2,0,0,0,.51-.06l0,.66a2.17,2.17,0,0,1-.78.12,1.22,1.22,0,0,1-.95-.37,1.79,1.79,0,0,1-.34-1.26v-2.64h-.75v-.67H356V233Z" transform="translate(-16.99 -17.24)"/><path class="cls-2" d="M359.25,239v-4.17h-.68v-.67h.68V234a2.28,2.28,0,0,1,.56-1.69,1.68,1.68,0,0,1,1.18-.45,2.05,2.05,0,0,1,.75.14l-.12.68a1.32,1.32,0,0,0-.56-.11c-.75,0-.94.66-.94,1.4v.26h1.17v.67h-1.17V239Z" transform="translate(-16.99 -17.24)"/><path class="cls-2" d="M366.33,236.57a2.36,2.36,0,0,1-2.41,2.57,2.3,2.3,0,0,1-2.32-2.49,2.36,2.36,0,0,1,2.4-2.57A2.29,2.29,0,0,1,366.33,236.57Zm-3.84.05c0,1.06.61,1.86,1.47,1.86s1.47-.79,1.47-1.88c0-.82-.41-1.86-1.45-1.86S362.49,235.7,362.49,236.62Z" transform="translate(-16.99 -17.24)"/><path class="cls-2" d="M367.44,235.7c0-.57,0-1.06,0-1.51h.77l0,.95h0a1.45,1.45,0,0,1,1.34-1.06.92.92,0,0,1,.25,0v.83a1.34,1.34,0,0,0-.3,0,1.23,1.23,0,0,0-1.18,1.13,2.42,2.42,0,0,0,0,.41V239h-.87Z" transform="translate(-16.99 -17.24)"/><path class="cls-2" d="M370.75,235.5c0-.5,0-.91,0-1.31h.77l0,.78h0a1.67,1.67,0,0,1,1.52-.89,1.43,1.43,0,0,1,1.37,1h0a2,2,0,0,1,.54-.63,1.65,1.65,0,0,1,1.07-.34c.64,0,1.59.42,1.59,2.1V239h-.86v-2.74c0-.93-.34-1.49-1-1.49a1.14,1.14,0,0,0-1,.8,1.44,1.44,0,0,0-.07.44v3h-.86v-2.9c0-.77-.34-1.33-1-1.33a1.31,1.31,0,0,0-1.16,1.31V239h-.86Z" transform="translate(-16.99 -17.24)"/><path class="cls-2" d="M382.11,232.29V239h-.87v-6.74Z" transform="translate(-16.99 -17.24)"/><path class="cls-2" d="M383.7,235.5c0-.5,0-.91,0-1.31h.78l0,.8h0a1.78,1.78,0,0,1,1.6-.91c.67,0,1.71.4,1.71,2.06V239h-.88v-2.79c0-.78-.29-1.43-1.12-1.43a1.25,1.25,0,0,0-1.18.9,1.27,1.27,0,0,0-.06.41V239h-.88Z" transform="translate(-16.99 -17.24)"/><path class="cls-2" d="M389.13,238.13a2.3,2.3,0,0,0,1.16.35c.64,0,.94-.32.94-.72s-.25-.65-.9-.89c-.87-.31-1.28-.79-1.28-1.37a1.49,1.49,0,0,1,1.67-1.42,2.42,2.42,0,0,1,1.19.3l-.22.64a1.88,1.88,0,0,0-1-.28c-.52,0-.81.3-.81.66s.29.58.92.82c.84.32,1.27.74,1.27,1.46s-.66,1.45-1.81,1.45a2.77,2.77,0,0,1-1.36-.33Z" transform="translate(-16.99 -17.24)"/><path class="cls-2" d="M394.27,232.8v1.39h1.26v.67h-1.26v2.61c0,.6.17.94.66.94a2,2,0,0,0,.51-.06l0,.66a2.17,2.17,0,0,1-.78.12,1.22,1.22,0,0,1-.95-.37,1.79,1.79,0,0,1-.34-1.26v-2.64h-.75v-.67h.75V233Z" transform="translate(-16.99 -17.24)"/><path class="cls-2" d="M399.2,239l-.07-.61h0a1.8,1.8,0,0,1-1.48.72,1.38,1.38,0,0,1-1.48-1.39c0-1.17,1-1.81,2.91-1.8v-.1a1,1,0,0,0-1.1-1.12,2.4,2.4,0,0,0-1.26.36l-.2-.58a3,3,0,0,1,1.59-.43c1.48,0,1.84,1,1.84,2v1.81A6.86,6.86,0,0,0,400,239Zm-.13-2.47c-1,0-2,.15-2,1.09a.78.78,0,0,0,.83.84,1.2,1.2,0,0,0,1.17-.81.91.91,0,0,0,.05-.28Z" transform="translate(-16.99 -17.24)"/><path class="cls-2" d="M401.34,231.93h.88V239h-.88Z" transform="translate(-16.99 -17.24)"/><path class="cls-2" d="M403.7,231.93h.88V239h-.88Z" transform="translate(-16.99 -17.24)"/><path class="cls-2" d="M406.55,236.77a1.55,1.55,0,0,0,1.66,1.68,3.18,3.18,0,0,0,1.34-.25l.15.63a3.91,3.91,0,0,1-1.61.3,2.25,2.25,0,0,1-2.38-2.44,2.35,2.35,0,0,1,2.27-2.61,2,2,0,0,1,2,2.28,3.39,3.39,0,0,1,0,.41Zm2.58-.63a1.25,1.25,0,0,0-1.22-1.43,1.46,1.46,0,0,0-1.35,1.43Z" transform="translate(-16.99 -17.24)"/><path class="cls-2" d="M411.07,235.7c0-.57,0-1.06,0-1.51h.77l0,.95h0a1.45,1.45,0,0,1,1.34-1.06.93.93,0,0,1,.25,0v.83a1.34,1.34,0,0,0-.3,0A1.23,1.23,0,0,0,412,236a2.53,2.53,0,0,0,0,.41V239h-.87Z" transform="translate(-16.99 -17.24)"/><rect class="cls-8" x="310.14" y="236.07" width="102.05" height="26.23"/><path class="cls-2" d="M353.28,262.72a9.06,9.06,0,0,1,1.67-.14,2.75,2.75,0,0,1,1.95.55,1.68,1.68,0,0,1,.53,1.28,1.77,1.77,0,0,1-1.27,1.72v0a1.68,1.68,0,0,1,1,1.36,10.73,10.73,0,0,0,.52,1.85h-.9a8.74,8.74,0,0,1-.45-1.61c-.2-.93-.56-1.28-1.35-1.31h-.82v2.92h-.87Zm.87,3.07H355c.93,0,1.52-.51,1.52-1.28s-.63-1.25-1.55-1.26a3.64,3.64,0,0,0-.86.08Z" transform="translate(-16.99 -17.24)"/><path class="cls-2" d="M359.16,267.1a1.55,1.55,0,0,0,1.66,1.68,3.19,3.19,0,0,0,1.34-.25l.15.63a3.91,3.91,0,0,1-1.61.3,2.25,2.25,0,0,1-2.38-2.44,2.35,2.35,0,0,1,2.27-2.61,2,2,0,0,1,2,2.28,3.34,3.34,0,0,1,0,.41Zm2.58-.63a1.25,1.25,0,0,0-1.22-1.43,1.46,1.46,0,0,0-1.35,1.43Z" transform="translate(-16.99 -17.24)"/><path class="cls-2" d="M363.68,266.11c0-.62,0-1.12,0-1.58h.79l0,.83h0a1.9,1.9,0,0,1,1.72-.94,2.19,2.19,0,0,1,2,2.46c0,1.74-1.06,2.6-2.2,2.6a1.7,1.7,0,0,1-1.49-.76h0v2.63h-.87Zm.87,1.29a2,2,0,0,0,0,.36,1.36,1.36,0,0,0,1.32,1c.93,0,1.47-.76,1.47-1.87s-.51-1.8-1.44-1.8a1.4,1.4,0,0,0-1.33,1.09,1.42,1.42,0,0,0-.06.36Z" transform="translate(-16.99 -17.24)"/><path class="cls-2" d="M373.75,266.9a2.36,2.36,0,0,1-2.41,2.57A2.3,2.3,0,0,1,369,267a2.36,2.36,0,0,1,2.4-2.57A2.29,2.29,0,0,1,373.75,266.9Zm-3.84.05c0,1.06.61,1.86,1.47,1.86s1.47-.79,1.47-1.88c0-.82-.41-1.86-1.45-1.86S369.91,266,369.91,267Z" transform="translate(-16.99 -17.24)"/><path class="cls-2" d="M374.74,268.46a2.3,2.3,0,0,0,1.16.35c.64,0,.94-.32.94-.72s-.25-.65-.9-.89c-.87-.31-1.28-.79-1.28-1.37a1.49,1.49,0,0,1,1.67-1.42,2.42,2.42,0,0,1,1.19.3l-.22.64a1.88,1.88,0,0,0-1-.28c-.52,0-.81.3-.81.66s.29.58.92.82c.84.32,1.27.74,1.27,1.46s-.66,1.45-1.81,1.45a2.77,2.77,0,0,1-1.36-.33Z" transform="translate(-16.99 -17.24)"/><path class="cls-2" d="M379.8,263.17a.54.54,0,0,1-1.09,0,.54.54,0,0,1,.55-.55A.52.52,0,0,1,379.8,263.17Zm-1,6.2v-4.84h.88v4.84Z" transform="translate(-16.99 -17.24)"/><path class="cls-2" d="M382.22,263.14v1.39h1.26v.67h-1.26v2.61c0,.6.17.94.66.94a2,2,0,0,0,.51-.06l0,.66a2.17,2.17,0,0,1-.78.12,1.22,1.22,0,0,1-.95-.37,1.79,1.79,0,0,1-.34-1.26V265.2h-.75v-.67h.75v-1.16Z" transform="translate(-16.99 -17.24)"/><path class="cls-2" d="M388.79,266.9a2.36,2.36,0,0,1-2.41,2.57,2.3,2.3,0,0,1-2.32-2.49,2.36,2.36,0,0,1,2.4-2.57A2.29,2.29,0,0,1,388.79,266.9ZM385,267c0,1.06.61,1.86,1.47,1.86s1.47-.79,1.47-1.88c0-.82-.41-1.86-1.45-1.86S385,266,385,267Z" transform="translate(-16.99 -17.24)"/><path class="cls-2" d="M389.9,266c0-.57,0-1.06,0-1.51h.77l0,.95h0a1.45,1.45,0,0,1,1.34-1.06.93.93,0,0,1,.25,0v.83a1.34,1.34,0,0,0-.3,0,1.23,1.23,0,0,0-1.18,1.13,2.53,2.53,0,0,0,0,.41v2.58h-.87Z" transform="translate(-16.99 -17.24)"/><path class="cls-2" d="M394.19,263.17a.54.54,0,0,1-1.09,0,.54.54,0,0,1,.55-.55A.52.52,0,0,1,394.19,263.17Zm-1,6.2v-4.84h.88v4.84Z" transform="translate(-16.99 -17.24)"/><path class="cls-2" d="M396,267.1a1.55,1.55,0,0,0,1.66,1.68,3.18,3.18,0,0,0,1.34-.25l.15.63a3.91,3.91,0,0,1-1.61.3A2.25,2.25,0,0,1,395.2,267a2.35,2.35,0,0,1,2.27-2.61,2,2,0,0,1,2,2.28,3.39,3.39,0,0,1,0,.41Zm2.58-.63A1.25,1.25,0,0,0,397.4,265a1.46,1.46,0,0,0-1.35,1.43Z" transform="translate(-16.99 -17.24)"/><path class="cls-2" d="M400.44,268.46a2.3,2.3,0,0,0,1.16.35c.64,0,.94-.32.94-.72s-.25-.65-.9-.89c-.87-.31-1.28-.79-1.28-1.37a1.49,1.49,0,0,1,1.67-1.42,2.42,2.42,0,0,1,1.19.3l-.22.64a1.88,1.88,0,0,0-1-.28c-.52,0-.81.3-.81.66s.29.58.92.82c.84.32,1.27.74,1.27,1.46s-.66,1.45-1.81,1.45a2.77,2.77,0,0,1-1.36-.33Z" transform="translate(-16.99 -17.24)"/><path class="cls-2" d="M367.13,288.6a12.45,12.45,0,0,1,1.85-.14,3.86,3.86,0,0,1,2.73.84,3.1,3.1,0,0,1,.95,2.42,3.56,3.56,0,0,1-1,2.62,4.15,4.15,0,0,1-3,1,14.1,14.1,0,0,1-1.58-.08Zm.87,6a5.51,5.51,0,0,0,.88,0,2.59,2.59,0,0,0,2.87-2.86,2.4,2.4,0,0,0-2.73-2.6,5,5,0,0,0-1,.09Z" transform="translate(-16.99 -17.24)"/><path class="cls-2" d="M376.44,295.25l-.07-.61h0a1.8,1.8,0,0,1-1.48.72,1.38,1.38,0,0,1-1.48-1.39c0-1.17,1-1.81,2.91-1.8v-.1a1,1,0,0,0-1.1-1.12,2.4,2.4,0,0,0-1.26.36l-.2-.58a3,3,0,0,1,1.59-.43c1.48,0,1.84,1,1.84,2v1.81a7,7,0,0,0,.08,1.16Zm-.13-2.47c-1,0-2,.15-2,1.09a.78.78,0,0,0,.83.84,1.2,1.2,0,0,0,1.17-.81.94.94,0,0,0,0-.28Z" transform="translate(-16.99 -17.24)"/><path class="cls-2" d="M379.6,289v1.39h1.26v.67H379.6v2.61c0,.6.17.94.66.94a1.94,1.94,0,0,0,.51-.06l0,.66a2.17,2.17,0,0,1-.78.12,1.22,1.22,0,0,1-.95-.37,1.79,1.79,0,0,1-.34-1.26v-2.64H378v-.67h.75v-1.16Z" transform="translate(-16.99 -17.24)"/><path class="cls-2" d="M384.53,295.25l-.07-.61h0a1.8,1.8,0,0,1-1.48.72,1.38,1.38,0,0,1-1.48-1.39c0-1.17,1-1.81,2.91-1.8v-.1a1,1,0,0,0-1.1-1.12,2.4,2.4,0,0,0-1.26.36l-.2-.58a3,3,0,0,1,1.59-.43c1.48,0,1.84,1,1.84,2v1.81a7,7,0,0,0,.08,1.16Zm-.13-2.47c-1,0-2,.15-2,1.09a.78.78,0,0,0,.83.84,1.2,1.2,0,0,0,1.17-.81.94.94,0,0,0,0-.28Z" transform="translate(-16.99 -17.24)"/><rect class="cls-9" x="69.9" y="168.62" width="226.77" height="119.06"/><rect class="cls-8" x="187.94" y="235.94" width="102.05" height="26.32"/><path class="cls-2" d="M232.05,262.62a10,10,0,0,1,1.67-.13,2.77,2.77,0,0,1,1.89.56,1.81,1.81,0,0,1,.59,1.41,2,2,0,0,1-.52,1.44,2.79,2.79,0,0,1-2.06.74,3,3,0,0,1-.7-.06v2.7h-.87Zm.87,3.25a2.93,2.93,0,0,0,.72.07c1,0,1.69-.51,1.69-1.44s-.63-1.32-1.59-1.32a3.64,3.64,0,0,0-.82.07Z" transform="translate(-16.99 -17.24)"/><path class="cls-2" d="M237.58,267a1.55,1.55,0,0,0,1.66,1.68,3.19,3.19,0,0,0,1.34-.25l.15.63a3.91,3.91,0,0,1-1.61.3,2.25,2.25,0,0,1-2.38-2.44,2.35,2.35,0,0,1,2.27-2.61,2,2,0,0,1,2,2.28,3.34,3.34,0,0,1,0,.41Zm2.58-.63a1.25,1.25,0,0,0-1.22-1.43,1.46,1.46,0,0,0-1.35,1.43Z" transform="translate(-16.99 -17.24)"/><path class="cls-2" d="M242.1,265.95c0-.57,0-1.06,0-1.51h.77l0,.95h0a1.45,1.45,0,0,1,1.34-1.06.92.92,0,0,1,.25,0v.83a1.34,1.34,0,0,0-.3,0,1.23,1.23,0,0,0-1.18,1.13,2.42,2.42,0,0,0,0,.41v2.58h-.87Z" transform="translate(-16.99 -17.24)"/><path class="cls-2" d="M245.41,265.75c0-.5,0-.91,0-1.31h.77l0,.78h0a1.67,1.67,0,0,1,1.52-.89,1.43,1.43,0,0,1,1.37,1h0a2,2,0,0,1,.54-.63,1.65,1.65,0,0,1,1.07-.34c.64,0,1.59.42,1.59,2.1v2.85h-.86v-2.74c0-.93-.34-1.49-1-1.49a1.14,1.14,0,0,0-1,.8,1.44,1.44,0,0,0-.07.44v3h-.86v-2.9c0-.77-.34-1.33-1-1.33a1.31,1.31,0,0,0-1.16,1.31v2.92h-.86Z" transform="translate(-16.99 -17.24)"/><path class="cls-2" d="M254.73,263.08a.54.54,0,0,1-1.09,0,.54.54,0,0,1,.55-.55A.52.52,0,0,1,254.73,263.08Zm-1,6.2v-4.84h.88v4.84Z" transform="translate(-16.99 -17.24)"/><path class="cls-2" d="M256,268.38a2.3,2.3,0,0,0,1.16.35c.64,0,.94-.32.94-.72s-.25-.65-.9-.89c-.87-.31-1.28-.79-1.28-1.37a1.49,1.49,0,0,1,1.67-1.42,2.41,2.41,0,0,1,1.19.3l-.22.64a1.88,1.88,0,0,0-1-.28c-.52,0-.81.3-.81.66s.29.58.92.82c.84.32,1.27.74,1.27,1.46s-.66,1.45-1.81,1.45a2.76,2.76,0,0,1-1.36-.33Z" transform="translate(-16.99 -17.24)"/><path class="cls-2" d="M259.93,268.38a2.3,2.3,0,0,0,1.16.35c.64,0,.94-.32.94-.72s-.25-.65-.9-.89c-.87-.31-1.28-.79-1.28-1.37a1.49,1.49,0,0,1,1.67-1.42,2.41,2.41,0,0,1,1.19.3l-.22.64a1.88,1.88,0,0,0-1-.28c-.52,0-.81.3-.81.66s.29.58.92.82c.84.32,1.27.74,1.27,1.46s-.66,1.45-1.81,1.45a2.76,2.76,0,0,1-1.36-.33Z" transform="translate(-16.99 -17.24)"/><path class="cls-2" d="M265,263.08a.54.54,0,0,1-1.09,0,.54.54,0,0,1,.55-.55A.52.52,0,0,1,265,263.08Zm-1,6.2v-4.84h.88v4.84Z" transform="translate(-16.99 -17.24)"/><path class="cls-2" d="M270.73,266.82a2.37,2.37,0,0,1-2.41,2.57A2.3,2.3,0,0,1,266,266.9a2.36,2.36,0,0,1,2.4-2.57A2.29,2.29,0,0,1,270.73,266.82Zm-3.84.05c0,1.06.61,1.86,1.47,1.86s1.47-.79,1.47-1.88c0-.82-.41-1.86-1.45-1.86S266.89,265.95,266.89,266.87Z" transform="translate(-16.99 -17.24)"/><path class="cls-2" d="M271.84,265.75c0-.5,0-.91,0-1.31h.78l0,.8h0a1.78,1.78,0,0,1,1.6-.91c.67,0,1.71.4,1.71,2.06v2.89h-.88v-2.79c0-.78-.29-1.43-1.12-1.43a1.25,1.25,0,0,0-1.18.9,1.26,1.26,0,0,0-.06.41v2.91h-.88Z" transform="translate(-16.99 -17.24)"/><path class="cls-2" d="M277.27,268.38a2.3,2.3,0,0,0,1.16.35c.64,0,.94-.32.94-.72s-.25-.65-.9-.89c-.87-.31-1.28-.79-1.28-1.37a1.49,1.49,0,0,1,1.67-1.42,2.41,2.41,0,0,1,1.19.3l-.22.64a1.88,1.88,0,0,0-1-.28c-.52,0-.81.3-.81.66s.29.58.92.82c.84.32,1.27.74,1.27,1.46s-.66,1.45-1.81,1.45A2.76,2.76,0,0,1,277,269Z" transform="translate(-16.99 -17.24)"/><rect class="cls-8" x="187.94" y="175.88" width="102.05" height="26.23"/><path class="cls-2" d="M233.65,203.17h-2v-.74h5v.74h-2.06v6h-.88Z" transform="translate(-16.99 -17.24)"/><path class="cls-2" d="M239.35,209.17l-.07-.61h0a1.8,1.8,0,0,1-1.48.72,1.38,1.38,0,0,1-1.48-1.39c0-1.17,1-1.81,2.91-1.8V206a1,1,0,0,0-1.1-1.12,2.4,2.4,0,0,0-1.26.36l-.2-.58a3,3,0,0,1,1.59-.43c1.48,0,1.84,1,1.84,2V208a6.85,6.85,0,0,0,.08,1.16Zm-.13-2.47c-1,0-2,.15-2,1.09a.78.78,0,0,0,.83.84,1.2,1.2,0,0,0,1.17-.81.91.91,0,0,0,0-.28Z" transform="translate(-16.99 -17.24)"/><path class="cls-2" d="M245.66,204.33c0,.35,0,.74,0,1.33v2.81a2.78,2.78,0,0,1-.69,2.21,2.56,2.56,0,0,1-1.76.58,3.13,3.13,0,0,1-1.61-.4l.22-.67a2.72,2.72,0,0,0,1.42.38c.9,0,1.56-.47,1.56-1.69v-.54h0a1.73,1.73,0,0,1-1.54.81,2.16,2.16,0,0,1-2.06-2.36,2.32,2.32,0,0,1,2.18-2.57,1.61,1.61,0,0,1,1.51.84h0l0-.73Zm-.91,1.91a1.25,1.25,0,0,0,0-.4,1.27,1.27,0,0,0-1.23-.93c-.84,0-1.44.71-1.44,1.83,0,.95.48,1.74,1.43,1.74a1.29,1.29,0,0,0,1.22-.9,1.54,1.54,0,0,0,.07-.47Z" transform="translate(-16.99 -17.24)"/><path class="cls-2" d="M250.1,202.43v2.82h3.26v-2.82h.88v6.74h-.88V206H250.1v3.16h-.87v-6.74Z" transform="translate(-16.99 -17.24)"/><path class="cls-2" d="M256.21,206.91a1.55,1.55,0,0,0,1.66,1.68,3.18,3.18,0,0,0,1.34-.25l.15.63a3.91,3.91,0,0,1-1.61.3,2.25,2.25,0,0,1-2.38-2.44,2.35,2.35,0,0,1,2.27-2.61,2,2,0,0,1,2,2.28,3.39,3.39,0,0,1,0,.41Zm2.58-.63a1.25,1.25,0,0,0-1.22-1.43,1.46,1.46,0,0,0-1.35,1.43Z" transform="translate(-16.99 -17.24)"/><path class="cls-2" d="M260.73,202.07h.88v7.1h-.88Z" transform="translate(-16.99 -17.24)"/><path class="cls-2" d="M263.09,205.91c0-.62,0-1.12,0-1.58h.79l0,.83h0a1.9,1.9,0,0,1,1.72-.94,2.19,2.19,0,0,1,2,2.46c0,1.74-1.06,2.6-2.2,2.6a1.7,1.7,0,0,1-1.49-.76h0v2.63h-.87Zm.87,1.29a2,2,0,0,0,0,.36,1.36,1.36,0,0,0,1.32,1c.93,0,1.47-.76,1.47-1.87s-.51-1.8-1.44-1.8A1.4,1.4,0,0,0,264,206a1.42,1.42,0,0,0-.06.36Z" transform="translate(-16.99 -17.24)"/><path class="cls-2" d="M269.27,206.91a1.55,1.55,0,0,0,1.66,1.68,3.18,3.18,0,0,0,1.34-.25l.15.63a3.91,3.91,0,0,1-1.61.3,2.25,2.25,0,0,1-2.38-2.44,2.35,2.35,0,0,1,2.27-2.61,2,2,0,0,1,2,2.28,3.39,3.39,0,0,1,0,.41Zm2.58-.63a1.25,1.25,0,0,0-1.22-1.43,1.46,1.46,0,0,0-1.35,1.43Z" transform="translate(-16.99 -17.24)"/><path class="cls-2" d="M273.79,205.84c0-.57,0-1.06,0-1.51h.77l0,.95h0a1.45,1.45,0,0,1,1.34-1.06.93.93,0,0,1,.25,0v.83a1.34,1.34,0,0,0-.3,0,1.23,1.23,0,0,0-1.18,1.13,2.42,2.42,0,0,0,0,.41v2.58h-.87Z" transform="translate(-16.99 -17.24)"/><path class="cls-2" d="M276.94,208.27a2.3,2.3,0,0,0,1.16.35c.64,0,.94-.32.94-.72s-.25-.65-.9-.89c-.87-.31-1.28-.79-1.28-1.37a1.49,1.49,0,0,1,1.67-1.42,2.41,2.41,0,0,1,1.19.3l-.22.64a1.88,1.88,0,0,0-1-.28c-.52,0-.81.3-.81.66s.29.58.92.82c.84.32,1.27.74,1.27,1.46s-.66,1.45-1.81,1.45a2.76,2.76,0,0,1-1.36-.33Z" transform="translate(-16.99 -17.24)"/><rect class="cls-8" x="187.94" y="205.93" width="102.05" height="26.23"/><path class="cls-2" d="M230.87,236.27c0-.94-.11-2.07-.1-2.91h0c-.23.79-.51,1.63-.85,2.56l-1.19,3.27H228L227,236c-.32-.95-.59-1.82-.78-2.62h0c0,.84-.07,2-.13,3l-.18,2.89H225l.47-6.74h1.11l1.15,3.26c.28.83.51,1.57.68,2.27h0c.17-.68.41-1.42.71-2.27l1.2-3.26h1.11l.42,6.74H231Z" transform="translate(-16.99 -17.24)"/><path class="cls-2" d="M237.64,236.76a2.37,2.37,0,0,1-2.41,2.57,2.3,2.3,0,0,1-2.32-2.49,2.36,2.36,0,0,1,2.4-2.57A2.29,2.29,0,0,1,237.64,236.76Zm-3.84.05c0,1.06.61,1.86,1.47,1.86s1.47-.79,1.47-1.88c0-.82-.41-1.86-1.45-1.86S233.8,235.9,233.8,236.82Z" transform="translate(-16.99 -17.24)"/><path class="cls-2" d="M242.93,232.13V238c0,.43,0,.92,0,1.25h-.79l0-.84h0a1.79,1.79,0,0,1-1.65,1,2.21,2.21,0,0,1-2.07-2.46,2.31,2.31,0,0,1,2.17-2.6A1.62,1.62,0,0,1,242,235h0v-2.89Zm-.88,4.23a1.54,1.54,0,0,0,0-.37,1.29,1.29,0,0,0-1.27-1c-.91,0-1.45.8-1.45,1.87s.48,1.79,1.43,1.79a1.32,1.32,0,0,0,1.29-1,1.51,1.51,0,0,0,0-.38Z" transform="translate(-16.99 -17.24)"/><path class="cls-2" d="M248.44,237.9c0,.5,0,.94,0,1.32h-.78l0-.79h0a1.82,1.82,0,0,1-1.6.9c-.76,0-1.67-.42-1.67-2.12v-2.83h.88v2.68c0,.92.28,1.54,1.08,1.54a1.27,1.27,0,0,0,1.16-.8,1.29,1.29,0,0,0,.08-.45v-3h.88Z" transform="translate(-16.99 -17.24)"/><path class="cls-2" d="M249.9,232.13h.88v7.1h-.88Z" transform="translate(-16.99 -17.24)"/><path class="cls-2" d="M252.75,237a1.55,1.55,0,0,0,1.66,1.68,3.19,3.19,0,0,0,1.34-.25l.15.63a3.91,3.91,0,0,1-1.61.3,2.25,2.25,0,0,1-2.38-2.44,2.35,2.35,0,0,1,2.27-2.61,2,2,0,0,1,2,2.28,3.34,3.34,0,0,1,0,.41Zm2.58-.63a1.25,1.25,0,0,0-1.22-1.43,1.46,1.46,0,0,0-1.35,1.43Z" transform="translate(-16.99 -17.24)"/><path class="cls-2" d="M259.42,232.49h.87v6h2.88v.73h-3.75Z" transform="translate(-16.99 -17.24)"/><path class="cls-2" d="M268.35,236.76a2.37,2.37,0,0,1-2.41,2.57,2.3,2.3,0,0,1-2.32-2.49,2.36,2.36,0,0,1,2.4-2.57A2.29,2.29,0,0,1,268.35,236.76Zm-3.84.05c0,1.06.61,1.86,1.47,1.86s1.47-.79,1.47-1.88c0-.82-.41-1.86-1.45-1.86S264.51,235.9,264.51,236.82Z" transform="translate(-16.99 -17.24)"/><path class="cls-2" d="M272.14,239.22l-.07-.61h0a1.8,1.8,0,0,1-1.48.72,1.38,1.38,0,0,1-1.48-1.39c0-1.17,1-1.81,2.91-1.8V236a1,1,0,0,0-1.1-1.12,2.4,2.4,0,0,0-1.26.36l-.2-.58a3,3,0,0,1,1.59-.43c1.48,0,1.84,1,1.84,2v1.81a6.85,6.85,0,0,0,.08,1.16Zm-.13-2.47c-1,0-2,.15-2,1.09a.78.78,0,0,0,.83.84,1.2,1.2,0,0,0,1.17-.81.91.91,0,0,0,0-.28Z" transform="translate(-16.99 -17.24)"/><path class="cls-2" d="M278.46,232.13V238c0,.43,0,.92,0,1.25h-.79l0-.84h0a1.79,1.79,0,0,1-1.65,1,2.21,2.21,0,0,1-2.07-2.46,2.31,2.31,0,0,1,2.17-2.6,1.62,1.62,0,0,1,1.46.74h0v-2.89Zm-.88,4.23a1.54,1.54,0,0,0,0-.37,1.29,1.29,0,0,0-1.27-1c-.91,0-1.45.8-1.45,1.87s.48,1.79,1.43,1.79a1.32,1.32,0,0,0,1.29-1,1.51,1.51,0,0,0,0-.38Z" transform="translate(-16.99 -17.24)"/><path class="cls-2" d="M280.41,237a1.55,1.55,0,0,0,1.66,1.68,3.18,3.18,0,0,0,1.34-.25l.15.63a3.91,3.91,0,0,1-1.61.3,2.25,2.25,0,0,1-2.38-2.44,2.35,2.35,0,0,1,2.27-2.61,2,2,0,0,1,2,2.28,3.39,3.39,0,0,1,0,.41Zm2.58-.63a1.25,1.25,0,0,0-1.22-1.43,1.46,1.46,0,0,0-1.35,1.43Z" transform="translate(-16.99 -17.24)"/><path class="cls-2" d="M284.93,235.9c0-.57,0-1.06,0-1.51h.77l0,.95h0a1.45,1.45,0,0,1,1.34-1.06.92.92,0,0,1,.25,0v.83a1.34,1.34,0,0,0-.3,0,1.23,1.23,0,0,0-1.18,1.13,2.42,2.42,0,0,0,0,.41v2.58h-.87Z" transform="translate(-16.99 -17.24)"/><rect class="cls-8" x="75.02" y="175.88" width="102.05" height="26.23"/><path class="cls-2" d="M121.37,198.17h-2v-.74h5v.74h-2.06v6h-.88Z" transform="translate(-16.99 -17.24)"/><path class="cls-2" d="M125,199.33l.64,2.46c.14.54.27,1,.36,1.54h0c.11-.49.27-1,.43-1.53l.79-2.47H128l.75,2.42c.18.58.32,1.09.43,1.58h0a14.52,14.52,0,0,1,.37-1.57l.69-2.43h.87l-1.56,4.84h-.8l-.74-2.31a16.08,16.08,0,0,1-.43-1.59h0a14.36,14.36,0,0,1-.44,1.6l-.78,2.3h-.8l-1.46-4.84Z" transform="translate(-16.99 -17.24)"/><path class="cls-2" d="M136.26,201.71a2.37,2.37,0,0,1-2.41,2.57,2.3,2.3,0,0,1-2.32-2.49,2.36,2.36,0,0,1,2.4-2.57A2.29,2.29,0,0,1,136.26,201.71Zm-3.84.05c0,1.06.61,1.86,1.47,1.86s1.47-.79,1.47-1.88c0-.82-.41-1.86-1.45-1.86S132.43,200.84,132.43,201.76Z" transform="translate(-16.99 -17.24)"/><path class="cls-2" d="M139.53,197.43h3.63v.73H140.4v2.24h2.55v.72H140.4v3h-.87Z" transform="translate(-16.99 -17.24)"/><path class="cls-2" d="M146.6,204.17l-.07-.61h0a1.8,1.8,0,0,1-1.48.72,1.38,1.38,0,0,1-1.48-1.39c0-1.17,1-1.81,2.91-1.8V201a1,1,0,0,0-1.1-1.12,2.4,2.4,0,0,0-1.26.36l-.2-.58a3,3,0,0,1,1.59-.43c1.48,0,1.84,1,1.84,2V203a6.85,6.85,0,0,0,.08,1.16Zm-.13-2.47c-1,0-2,.15-2,1.09a.78.78,0,0,0,.83.84,1.2,1.2,0,0,0,1.17-.81.91.91,0,0,0,.05-.28Z" transform="translate(-16.99 -17.24)"/><path class="cls-2" d="M152.18,204a3.24,3.24,0,0,1-1.39.28,2.3,2.3,0,0,1-2.41-2.47,2.46,2.46,0,0,1,2.6-2.57,2.94,2.94,0,0,1,1.22.25l-.2.68a2,2,0,0,0-1-.23,1.82,1.82,0,0,0,0,3.64,2.49,2.49,0,0,0,1.08-.24Z" transform="translate(-16.99 -17.24)"/><path class="cls-2" d="M154.41,197.94v1.39h1.26V200h-1.26v2.61c0,.6.17.94.66.94a2,2,0,0,0,.51-.06l0,.66a2.17,2.17,0,0,1-.78.12,1.22,1.22,0,0,1-.95-.37,1.79,1.79,0,0,1-.34-1.26V200h-.75v-.67h.75v-1.16Z" transform="translate(-16.99 -17.24)"/><path class="cls-2" d="M161,201.71a2.37,2.37,0,0,1-2.41,2.57,2.3,2.3,0,0,1-2.32-2.49,2.36,2.36,0,0,1,2.4-2.57A2.29,2.29,0,0,1,161,201.71Zm-3.84.05c0,1.06.61,1.86,1.47,1.86s1.47-.79,1.47-1.88c0-.82-.41-1.86-1.45-1.86S157.14,200.84,157.14,201.76Z" transform="translate(-16.99 -17.24)"/><path class="cls-2" d="M162.09,200.84c0-.57,0-1.06,0-1.51h.77l0,.95h0a1.45,1.45,0,0,1,1.34-1.06.93.93,0,0,1,.25,0v.83a1.34,1.34,0,0,0-.3,0,1.23,1.23,0,0,0-1.18,1.13,2.47,2.47,0,0,0,0,.41v2.58h-.87Z" transform="translate(-16.99 -17.24)"/><path class="cls-2" d="M102.12,214.05l-.7,2.12h-.9l2.29-6.74h1l2.3,6.74h-.93l-.72-2.12Zm2.21-.68-.66-1.94c-.15-.44-.25-.84-.35-1.23h0c-.1.4-.21.81-.34,1.22l-.66,1.95Z" transform="translate(-16.99 -17.24)"/><path class="cls-2" d="M111,214.85c0,.5,0,.94,0,1.32h-.78l0-.79h0a1.82,1.82,0,0,1-1.6.9c-.76,0-1.67-.42-1.67-2.12v-2.83h.88V214c0,.92.28,1.54,1.08,1.54a1.27,1.27,0,0,0,1.16-.8,1.29,1.29,0,0,0,.08-.45v-3H111Z" transform="translate(-16.99 -17.24)"/><path class="cls-2" d="M112.51,212.64c0-.5,0-.91,0-1.31h.78l0,.8h0a1.78,1.78,0,0,1,1.6-.91c.67,0,1.71.4,1.71,2.06v2.89h-.88v-2.79c0-.78-.29-1.43-1.12-1.43a1.25,1.25,0,0,0-1.18.9,1.27,1.27,0,0,0-.06.41v2.91h-.88Z" transform="translate(-16.99 -17.24)"/><path class="cls-2" d="M119.08,209.94v1.39h1.26V212h-1.26v2.61c0,.6.17.94.66.94a2,2,0,0,0,.51-.06l0,.66a2.17,2.17,0,0,1-.78.12,1.22,1.22,0,0,1-.95-.37,1.79,1.79,0,0,1-.34-1.26V212h-.75v-.67h.75v-1.16Z" transform="translate(-16.99 -17.24)"/><path class="cls-2" d="M121.33,209.07h.88v3h0a1.63,1.63,0,0,1,.63-.62,1.81,1.81,0,0,1,.9-.25c.65,0,1.69.4,1.69,2.07v2.88h-.88v-2.78c0-.78-.29-1.44-1.12-1.44a1.26,1.26,0,0,0-1.18.88,1.07,1.07,0,0,0-.06.42v2.92h-.88Z" transform="translate(-16.99 -17.24)"/><path class="cls-2" d="M127.37,213.91a1.55,1.55,0,0,0,1.66,1.68,3.19,3.19,0,0,0,1.34-.25l.15.63a3.91,3.91,0,0,1-1.61.3,2.25,2.25,0,0,1-2.38-2.44,2.35,2.35,0,0,1,2.27-2.61,2,2,0,0,1,2,2.28,3.37,3.37,0,0,1,0,.41Zm2.58-.63a1.25,1.25,0,0,0-1.22-1.43,1.46,1.46,0,0,0-1.35,1.43Z" transform="translate(-16.99 -17.24)"/><path class="cls-2" d="M132.95,209.94v1.39h1.26V212h-1.26v2.61c0,.6.17.94.66.94a2,2,0,0,0,.51-.06l0,.66a2.17,2.17,0,0,1-.78.12,1.22,1.22,0,0,1-.95-.37,1.79,1.79,0,0,1-.34-1.26V212h-.75v-.67h.75v-1.16Z" transform="translate(-16.99 -17.24)"/><path class="cls-2" d="M136.18,210a.54.54,0,0,1-1.09,0,.54.54,0,0,1,.55-.55A.52.52,0,0,1,136.18,210Zm-1,6.2v-4.84h.88v4.84Z" transform="translate(-16.99 -17.24)"/><path class="cls-2" d="M141,216a3.24,3.24,0,0,1-1.39.28,2.3,2.3,0,0,1-2.41-2.47,2.46,2.46,0,0,1,2.6-2.57,2.94,2.94,0,0,1,1.22.25l-.2.68a2,2,0,0,0-1-.23,1.82,1.82,0,0,0,0,3.64,2.49,2.49,0,0,0,1.08-.24Z" transform="translate(-16.99 -17.24)"/><path class="cls-2" d="M144.7,216.17l-.07-.61h0a1.8,1.8,0,0,1-1.48.72,1.38,1.38,0,0,1-1.48-1.39c0-1.17,1-1.81,2.91-1.8V213a1,1,0,0,0-1.1-1.12,2.4,2.4,0,0,0-1.26.36l-.2-.58a3,3,0,0,1,1.59-.43c1.48,0,1.84,1,1.84,2V215a6.85,6.85,0,0,0,.08,1.16Zm-.13-2.47c-1,0-2,.15-2,1.09a.78.78,0,0,0,.83.84,1.2,1.2,0,0,0,1.17-.81.91.91,0,0,0,.05-.28Z" transform="translate(-16.99 -17.24)"/><path class="cls-2" d="M147.86,209.94v1.39h1.26V212h-1.26v2.61c0,.6.17.94.66.94a2,2,0,0,0,.51-.06l0,.66a2.17,2.17,0,0,1-.78.12,1.22,1.22,0,0,1-.95-.37,1.79,1.79,0,0,1-.34-1.26V212h-.75v-.67H147v-1.16Z" transform="translate(-16.99 -17.24)"/><path class="cls-2" d="M151.09,210a.54.54,0,0,1-1.09,0,.54.54,0,0,1,.55-.55A.52.52,0,0,1,151.09,210Zm-1,6.2v-4.84H151v4.84Z" transform="translate(-16.99 -17.24)"/><path class="cls-2" d="M156.82,213.71a2.37,2.37,0,0,1-2.41,2.57,2.3,2.3,0,0,1-2.32-2.49,2.36,2.36,0,0,1,2.4-2.57A2.29,2.29,0,0,1,156.82,213.71Zm-3.84.05c0,1.06.61,1.86,1.47,1.86s1.47-.79,1.47-1.88c0-.82-.41-1.86-1.45-1.86S153,212.84,153,213.76Z" transform="translate(-16.99 -17.24)"/><path class="cls-2" d="M157.94,212.64c0-.5,0-.91,0-1.31h.78l0,.8h0a1.78,1.78,0,0,1,1.6-.91c.67,0,1.71.4,1.71,2.06v2.89h-.88v-2.79c0-.78-.29-1.43-1.12-1.43a1.25,1.25,0,0,0-1.18.9,1.27,1.27,0,0,0-.06.41v2.91h-.88Z" transform="translate(-16.99 -17.24)"/><path class="cls-2" d="M167.52,209.23a6.59,6.59,0,0,0-1.26,4.09,6.73,6.73,0,0,0,1.26,4.06h-.69a6.46,6.46,0,0,1-1.31-4.06,6.6,6.6,0,0,1,1.31-4.09Z" transform="translate(-16.99 -17.24)"/><path class="cls-2" d="M168.17,216.17v-.54l.69-.67c1.66-1.58,2.41-2.42,2.42-3.4a1.16,1.16,0,0,0-1.29-1.27,2.21,2.21,0,0,0-1.38.55l-.28-.62a2.85,2.85,0,0,1,1.84-.66,1.83,1.83,0,0,1,2,1.89c0,1.2-.87,2.17-2.24,3.49l-.52.48v0h2.92v.73Z" transform="translate(-16.99 -17.24)"/><path class="cls-2" d="M173.61,209.43h3.63v.73h-2.76v2.24H177v.72h-2.55v3h-.87Z" transform="translate(-16.99 -17.24)"/><path class="cls-2" d="M178.79,214.05l-.7,2.12h-.9l2.29-6.74h1l2.3,6.74h-.93l-.72-2.12Zm2.21-.68-.66-1.94c-.15-.44-.25-.84-.35-1.23h0c-.1.4-.21.81-.34,1.22l-.66,1.95Z" transform="translate(-16.99 -17.24)"/><path class="cls-2" d="M183.17,217.38a6.76,6.76,0,0,0,1.26-4.09,6.63,6.63,0,0,0-1.26-4.06h.68a6.37,6.37,0,0,1,1.31,4.07,6.49,6.49,0,0,1-1.31,4.08Z" transform="translate(-16.99 -17.24)"/><rect class="cls-8" x="75.02" y="235.98" width="102.05" height="26.23"/><path class="cls-2" d="M128.51,262.77v6.74h-.87v-6.74Z" transform="translate(-16.99 -17.24)"/><path class="cls-2" d="M134.18,262.41v5.85c0,.43,0,.92,0,1.25h-.79l0-.84h0a1.79,1.79,0,0,1-1.65,1,2.21,2.21,0,0,1-2.07-2.46,2.31,2.31,0,0,1,2.17-2.6,1.62,1.62,0,0,1,1.46.74h0v-2.89Zm-.88,4.23a1.57,1.57,0,0,0,0-.37,1.29,1.29,0,0,0-1.27-1c-.91,0-1.45.8-1.45,1.87s.48,1.79,1.43,1.79a1.32,1.32,0,0,0,1.29-1,1.53,1.53,0,0,0,0-.38Z" transform="translate(-16.99 -17.24)"/><path class="cls-2" d="M136.13,267.24a1.55,1.55,0,0,0,1.66,1.68,3.19,3.19,0,0,0,1.34-.25l.15.63a3.91,3.91,0,0,1-1.61.3,2.25,2.25,0,0,1-2.38-2.44,2.35,2.35,0,0,1,2.27-2.61,2,2,0,0,1,2,2.28,3.37,3.37,0,0,1,0,.41Zm2.58-.63a1.25,1.25,0,0,0-1.22-1.43,1.46,1.46,0,0,0-1.35,1.43Z" transform="translate(-16.99 -17.24)"/><path class="cls-2" d="M140.65,266c0-.5,0-.91,0-1.31h.78l0,.8h0a1.78,1.78,0,0,1,1.6-.91c.67,0,1.71.4,1.71,2.06v2.89h-.88v-2.79c0-.78-.29-1.43-1.12-1.43a1.25,1.25,0,0,0-1.18.9,1.27,1.27,0,0,0-.06.41v2.91h-.88Z" transform="translate(-16.99 -17.24)"/><path class="cls-2" d="M147.22,263.28v1.39h1.26v.67h-1.26v2.61c0,.6.17.94.66.94a2,2,0,0,0,.51-.06l0,.66a2.17,2.17,0,0,1-.78.12,1.22,1.22,0,0,1-.95-.37,1.79,1.79,0,0,1-.34-1.26v-2.64h-.75v-.67h.75v-1.16Z" transform="translate(-16.99 -17.24)"/><path class="cls-2" d="M150.45,263.31a.54.54,0,0,1-1.09,0,.54.54,0,0,1,.55-.55A.52.52,0,0,1,150.45,263.31Zm-1,6.2v-4.84h.88v4.84Z" transform="translate(-16.99 -17.24)"/><path class="cls-2" d="M152.87,263.28v1.39h1.26v.67h-1.26v2.61c0,.6.17.94.66.94a2,2,0,0,0,.51-.06l0,.66a2.17,2.17,0,0,1-.78.12,1.22,1.22,0,0,1-.95-.37A1.79,1.79,0,0,1,152,268v-2.64h-.75v-.67H152v-1.16Z" transform="translate(-16.99 -17.24)"/><path class="cls-2" d="M155.53,264.67l1.06,2.86c.11.32.23.7.31,1h0c.09-.29.19-.66.31-1l1-2.84h.93l-1.32,3.45a7.37,7.37,0,0,1-1.66,3,2.39,2.39,0,0,1-1.08.57l-.22-.74a2.3,2.3,0,0,0,.77-.43,2.66,2.66,0,0,0,.74-1,.62.62,0,0,0,.07-.21.77.77,0,0,0-.06-.23l-1.79-4.46Z" transform="translate(-16.99 -17.24)"/><rect class="cls-8" x="75.02" y="205.93" width="102.05" height="26.23"/><path class="cls-2" d="M136,235.79c0,2.32-1.41,3.55-3.13,3.55s-3-1.38-3-3.42,1.33-3.54,3.13-3.54S136,233.79,136,235.79Zm-5.23.11c0,1.44.78,2.73,2.15,2.73s2.16-1.27,2.16-2.8c0-1.34-.7-2.74-2.15-2.74S130.77,234.42,130.77,235.9Z" transform="translate(-16.99 -17.24)"/><path class="cls-2" d="M138.08,237.1l-.7,2.12h-.9l2.29-6.74h1l2.3,6.74h-.93l-.72-2.12Zm2.21-.68-.66-1.94c-.15-.44-.25-.84-.35-1.23h0c-.1.4-.21.81-.34,1.22l-.66,1.95Z" transform="translate(-16.99 -17.24)"/><path class="cls-2" d="M147,237.9c0,.5,0,.94,0,1.32h-.78l0-.79h0a1.82,1.82,0,0,1-1.6.9c-.76,0-1.67-.42-1.67-2.12v-2.83h.88v2.68c0,.92.28,1.54,1.08,1.54a1.27,1.27,0,0,0,1.16-.8,1.29,1.29,0,0,0,.08-.45v-3H147Z" transform="translate(-16.99 -17.24)"/><path class="cls-2" d="M149.53,233v1.39h1.26v.67h-1.26v2.61c0,.6.17.94.66.94a2,2,0,0,0,.51-.06l0,.66a2.17,2.17,0,0,1-.78.12A1.22,1.22,0,0,1,149,239a1.79,1.79,0,0,1-.34-1.26v-2.64h-.75v-.67h.75v-1.16Z" transform="translate(-16.99 -17.24)"/><path class="cls-2" d="M151.78,232.13h.88v3h0a1.63,1.63,0,0,1,.63-.62,1.81,1.81,0,0,1,.9-.25c.65,0,1.69.4,1.69,2.07v2.88H155v-2.78c0-.78-.29-1.44-1.12-1.44a1.26,1.26,0,0,0-1.18.88,1.07,1.07,0,0,0-.06.42v2.92h-.88Z" transform="translate(-16.99 -17.24)"/><path class="cls-2" d="M185.74,289.18h.87v6h2.88v.73h-3.75Z" transform="translate(-16.99 -17.24)"/><path class="cls-2" d="M191.41,289.72a.54.54,0,0,1-1.09,0,.54.54,0,0,1,.55-.55A.52.52,0,0,1,191.41,289.72Zm-1,6.2v-4.84h.88v4.84Z" transform="translate(-16.99 -17.24)"/><path class="cls-2" d="M192.73,295.92c0-.33,0-.82,0-1.25v-5.85h.87v3h0a1.8,1.8,0,0,1,1.65-.89c1.2,0,2,1,2,2.47a2.3,2.3,0,0,1-2.17,2.59,1.72,1.72,0,0,1-1.62-.91h0l0,.8Zm.91-1.94a1.64,1.64,0,0,0,0,.32,1.36,1.36,0,0,0,1.32,1c.92,0,1.47-.75,1.47-1.86s-.5-1.8-1.44-1.8a1.4,1.4,0,0,0-1.34,1.08,1.73,1.73,0,0,0,0,.36Z" transform="translate(-16.99 -17.24)"/><path class="cls-2" d="M198.46,292.59c0-.57,0-1.06,0-1.51h.77l0,.95h0A1.45,1.45,0,0,1,200.6,291a.93.93,0,0,1,.25,0v.83a1.34,1.34,0,0,0-.3,0,1.23,1.23,0,0,0-1.18,1.13,2.47,2.47,0,0,0,0,.41v2.58h-.87Z" transform="translate(-16.99 -17.24)"/><path class="cls-2" d="M204.36,295.92l-.07-.61h0a1.8,1.8,0,0,1-1.48.72,1.38,1.38,0,0,1-1.48-1.39c0-1.17,1-1.81,2.91-1.8v-.1a1,1,0,0,0-1.1-1.12,2.4,2.4,0,0,0-1.26.36l-.2-.58a3,3,0,0,1,1.59-.43c1.48,0,1.84,1,1.84,2v1.81a6.85,6.85,0,0,0,.08,1.16Zm-.13-2.47c-1,0-2,.15-2,1.09a.78.78,0,0,0,.83.84,1.2,1.2,0,0,0,1.17-.81.91.91,0,0,0,.05-.28Z" transform="translate(-16.99 -17.24)"/><path class="cls-2" d="M206.5,292.59c0-.57,0-1.06,0-1.51h.77l0,.95h0a1.45,1.45,0,0,1,1.34-1.06.93.93,0,0,1,.25,0v.83a1.34,1.34,0,0,0-.3,0,1.23,1.23,0,0,0-1.18,1.13,2.47,2.47,0,0,0,0,.41v2.58h-.87Z" transform="translate(-16.99 -17.24)"/><path class="cls-2" d="M210.34,291.08l1.06,2.86c.11.32.23.7.31,1h0c.09-.29.19-.66.31-1l1-2.84h.93l-1.32,3.45a7.37,7.37,0,0,1-1.66,3,2.38,2.38,0,0,1-1.08.57l-.22-.74a2.3,2.3,0,0,0,.77-.43,2.66,2.66,0,0,0,.74-1,.62.62,0,0,0,.07-.21.77.77,0,0,0-.06-.23l-1.79-4.46Z" transform="translate(-16.99 -17.24)"/><rect class="cls-6" x="1.53" y="373.86" width="423.21" height="28.35"/><rect class="cls-10" x="0.42" width="423" height="28.35"/><path class="cls-2" d="M153,26.21a17.42,17.42,0,0,1,2.59-.2,5.41,5.41,0,0,1,3.82,1.18,4.35,4.35,0,0,1,1.33,3.39,5,5,0,0,1-1.36,3.67,5.82,5.82,0,0,1-4.17,1.36A19.73,19.73,0,0,1,153,35.5Zm1.22,8.35a7.74,7.74,0,0,0,1.23.07c2.6,0,4-1.46,4-4,0-2.23-1.25-3.64-3.82-3.64a6.91,6.91,0,0,0-1.43.13Z" transform="translate(-16.99 -17.24)"/><path class="cls-2" d="M163,32.36a2.17,2.17,0,0,0,2.33,2.35,4.46,4.46,0,0,0,1.88-.35l.21.88a5.48,5.48,0,0,1-2.25.42,3.15,3.15,0,0,1-3.33-3.42c0-2,1.2-3.66,3.18-3.66,2.21,0,2.8,1.95,2.8,3.19a4.73,4.73,0,0,1,0,.57Zm3.61-.88a1.75,1.75,0,0,0-1.71-2,2,2,0,0,0-1.89,2Z" transform="translate(-16.99 -17.24)"/><path class="cls-2" d="M169.83,28.74l1.33,3.81a17.5,17.5,0,0,1,.55,1.74h0c.15-.56.35-1.12.57-1.74l1.32-3.81h1.29l-2.66,6.78h-1.18l-2.58-6.78Z" transform="translate(-16.99 -17.24)"/><path class="cls-2" d="M177.46,26.84a.76.76,0,0,1-1.53,0,.75.75,0,0,1,.77-.77A.73.73,0,0,1,177.46,26.84Zm-1.37,8.68V28.74h1.23v6.78Z" transform="translate(-16.99 -17.24)"/><path class="cls-2" d="M179.2,34.26a3.23,3.23,0,0,0,1.63.49c.9,0,1.32-.45,1.32-1s-.35-.91-1.26-1.25c-1.22-.43-1.79-1.11-1.79-1.92a2.09,2.09,0,0,1,2.34-2,3.38,3.38,0,0,1,1.67.42l-.31.9a2.64,2.64,0,0,0-1.39-.39c-.73,0-1.13.42-1.13.92s.41.81,1.29,1.15c1.18.45,1.78,1,1.78,2,0,1.19-.92,2-2.54,2a3.86,3.86,0,0,1-1.9-.46Z" transform="translate(-16.99 -17.24)"/><path class="cls-2" d="M185.6,32.36a2.17,2.17,0,0,0,2.33,2.35,4.46,4.46,0,0,0,1.88-.35l.21.88a5.48,5.48,0,0,1-2.25.42,3.15,3.15,0,0,1-3.33-3.42c0-2,1.2-3.66,3.18-3.66,2.21,0,2.8,1.95,2.8,3.19a4.73,4.73,0,0,1,0,.57Zm3.61-.88a1.75,1.75,0,0,0-1.71-2,2,2,0,0,0-1.89,2Z" transform="translate(-16.99 -17.24)"/><path class="cls-2" d="M191.92,30.86c0-.8,0-1.48-.06-2.12h1.08l0,1.33H193a2,2,0,0,1,1.88-1.48,1.32,1.32,0,0,1,.35,0v1.16a1.83,1.83,0,0,0-.42,0,1.73,1.73,0,0,0-1.65,1.58,3.44,3.44,0,0,0-.06.57v3.61h-1.22Z" transform="translate(-16.99 -17.24)"/><path class="cls-2" d="M200.55,35.52l-2.4-9.44h1.29l1.12,4.78c.28,1.18.53,2.35.7,3.26h0c.15-.94.45-2.06.77-3.28l1.26-4.76h1.27l1.15,4.79c.27,1.12.52,2.24.66,3.24h0c.2-1,.46-2.09.76-3.26l1.25-4.76h1.25L207,35.52h-1.27l-1.19-4.92a28.33,28.33,0,0,1-.62-3.08h0a29.38,29.38,0,0,1-.73,3.08l-1.34,4.92Z" transform="translate(-16.99 -17.24)"/><path class="cls-2" d="M211,32.36a2.17,2.17,0,0,0,2.33,2.35,4.46,4.46,0,0,0,1.88-.35l.21.88a5.48,5.48,0,0,1-2.25.42,3.15,3.15,0,0,1-3.33-3.42c0-2,1.2-3.66,3.18-3.66,2.21,0,2.8,1.95,2.8,3.19a4.73,4.73,0,0,1,0,.57Zm3.61-.88a1.75,1.75,0,0,0-1.71-2,2,2,0,0,0-1.89,2Z" transform="translate(-16.99 -17.24)"/><path class="cls-2" d="M217.31,35.52c0-.46.06-1.15.06-1.75V25.58h1.22v4.26h0a2.53,2.53,0,0,1,2.31-1.25c1.68,0,2.87,1.4,2.86,3.46,0,2.42-1.53,3.63-3,3.63a2.42,2.42,0,0,1-2.27-1.27h0l-.06,1.12Zm1.27-2.72a2.29,2.29,0,0,0,.06.45,1.9,1.9,0,0,0,1.85,1.44c1.29,0,2.06-1.05,2.06-2.6,0-1.36-.7-2.52-2-2.52a2,2,0,0,0-1.88,1.51,2.44,2.44,0,0,0-.07.5Z" transform="translate(-16.99 -17.24)"/><path class="cls-2" d="M229.56,26.08v9.44h-1.22V26.08Z" transform="translate(-16.99 -17.24)"/><path class="cls-2" d="M231.78,30.58c0-.7,0-1.27-.06-1.83h1.09l.07,1.12h0a2.49,2.49,0,0,1,2.24-1.27c.94,0,2.4.56,2.4,2.89v4h-1.23V31.61c0-1.09-.41-2-1.57-2A1.81,1.81,0,0,0,233,31.45v4.08h-1.23Z" transform="translate(-16.99 -17.24)"/><path class="cls-2" d="M241,26.8v1.95h1.76v.94H241v3.66c0,.84.24,1.32.92,1.32a2.75,2.75,0,0,0,.71-.08l.06.92a3,3,0,0,1-1.09.17,1.71,1.71,0,0,1-1.33-.52,2.51,2.51,0,0,1-.48-1.76v-3.7h-1.05v-.94h1.05V27.12Z" transform="translate(-16.99 -17.24)"/><path class="cls-2" d="M244.73,32.36a2.17,2.17,0,0,0,2.33,2.35,4.45,4.45,0,0,0,1.88-.35l.21.88a5.48,5.48,0,0,1-2.25.42,3.15,3.15,0,0,1-3.33-3.42c0-2,1.21-3.66,3.18-3.66,2.21,0,2.8,1.95,2.8,3.19a4.73,4.73,0,0,1,0,.57Zm3.61-.88a1.76,1.76,0,0,0-1.71-2,2,2,0,0,0-1.89,2Z" transform="translate(-16.99 -17.24)"/><path class="cls-2" d="M251.06,30.86c0-.8,0-1.48-.06-2.12h1.08l0,1.33h.06a2,2,0,0,1,1.88-1.48,1.31,1.31,0,0,1,.35,0v1.16a1.83,1.83,0,0,0-.42,0,1.73,1.73,0,0,0-1.65,1.58,3.55,3.55,0,0,0-.06.57v3.61h-1.22Z" transform="translate(-16.99 -17.24)"/><path class="cls-2" d="M256.18,35.52V29.68h-1v-.94h1v-.32a3.2,3.2,0,0,1,.78-2.37,2.36,2.36,0,0,1,1.65-.63,2.86,2.86,0,0,1,1.05.2l-.17,1a1.85,1.85,0,0,0-.79-.15c-1,0-1.32.92-1.32,2v.36H259v.94H257.4v5.84Z" transform="translate(-16.99 -17.24)"/><path class="cls-2" d="M263.9,35.52l-.1-.85h0a2.52,2.52,0,0,1-2.07,1,1.93,1.93,0,0,1-2.07-1.95c0-1.64,1.46-2.54,4.08-2.52v-.14a1.4,1.4,0,0,0-1.54-1.57,3.38,3.38,0,0,0-1.76.5l-.28-.81a4.21,4.21,0,0,1,2.23-.6c2.07,0,2.58,1.41,2.58,2.77V33.9a9.55,9.55,0,0,0,.11,1.63Zm-.18-3.46c-1.34,0-2.87.21-2.87,1.53A1.09,1.09,0,0,0,262,34.77a1.69,1.69,0,0,0,1.64-1.13,1.29,1.29,0,0,0,.07-.39Z" transform="translate(-16.99 -17.24)"/><path class="cls-2" d="M271.73,35.27a4.55,4.55,0,0,1-1.95.39,3.22,3.22,0,0,1-3.38-3.46A3.44,3.44,0,0,1,270,28.6a4.11,4.11,0,0,1,1.71.35l-.28,1a2.86,2.86,0,0,0-1.43-.32,2.35,2.35,0,0,0-2.39,2.56A2.32,2.32,0,0,0,270,34.68a3.5,3.5,0,0,0,1.51-.34Z" transform="translate(-16.99 -17.24)"/><path class="cls-2" d="M273.77,32.36a2.17,2.17,0,0,0,2.33,2.35,4.45,4.45,0,0,0,1.88-.35l.21.88a5.48,5.48,0,0,1-2.25.42,3.15,3.15,0,0,1-3.33-3.42c0-2,1.21-3.66,3.18-3.66,2.21,0,2.8,1.95,2.8,3.19a4.73,4.73,0,0,1,0,.57Zm3.61-.88a1.76,1.76,0,0,0-1.71-2,2,2,0,0,0-1.89,2Z" transform="translate(-16.99 -17.24)"/><path class="cls-2" d="M285.74,25.8A9.24,9.24,0,0,0,284,31.53a9.44,9.44,0,0,0,1.77,5.69h-1a9.05,9.05,0,0,1-1.83-5.69,9.24,9.24,0,0,1,1.83-5.73Z" transform="translate(-16.99 -17.24)"/><path class="cls-2" d="M289.32,35.52l-2.4-9.44h1.29l1.12,4.78c.28,1.18.53,2.35.7,3.26h0c.15-.94.45-2.06.77-3.28l1.26-4.76h1.27l1.15,4.79c.27,1.12.52,2.24.66,3.24h0c.2-1,.46-2.09.76-3.26l1.25-4.76h1.25l-2.68,9.44H294.5l-1.19-4.92a28.45,28.45,0,0,1-.62-3.08h0a29.38,29.38,0,0,1-.73,3.08l-1.34,4.92Z" transform="translate(-16.99 -17.24)"/><path class="cls-2" d="M300.84,26.08v9.44h-1.22V26.08Z" transform="translate(-16.99 -17.24)"/><path class="cls-2" d="M302.19,37.22A9.48,9.48,0,0,0,304,31.49a9.28,9.28,0,0,0-1.76-5.69h1A8.92,8.92,0,0,1,305,31.5a9.09,9.09,0,0,1-1.83,5.71Z" transform="translate(-16.99 -17.24)"/><path class="cls-2" d="M201.68,408.65a.83.83,0,0,1,.84-.88.88.88,0,1,1-.84.88Z" transform="translate(-16.99 -17.24)"/><path class="cls-2" d="M204.92,409.38v-9.44h1.33l3,4.78a26.76,26.76,0,0,1,1.7,3.07h0c-.11-1.26-.14-2.41-.14-3.88v-4H212v9.44h-1.23l-3-4.79a30,30,0,0,1-1.77-3.15h0c.07,1.19.1,2.33.1,3.89v4Z" transform="translate(-16.99 -17.24)"/><path class="cls-2" d="M219,405h-3.67v3.4h4.09v1h-5.32v-9.44h5.1v1h-3.88v3H219Z" transform="translate(-16.99 -17.24)"/><path class="cls-2" d="M223.07,401h-2.87v-1h7v1H224.3v8.4h-1.23Z" transform="translate(-16.99 -17.24)"/><path class="cls-2" d="M237.82,409.07a6.05,6.05,0,0,1-2.5.45,4.41,4.41,0,0,1-4.67-4.78,4.7,4.7,0,0,1,4.94-5,5.07,5.07,0,0,1,2.24.42l-.29,1a4.45,4.45,0,0,0-1.91-.39c-2.22,0-3.69,1.41-3.69,3.89,0,2.31,1.33,3.8,3.63,3.8a4.88,4.88,0,0,0,2-.39Z" transform="translate(-16.99 -17.24)"/><path class="cls-2" d="M245.3,405.93a3.32,3.32,0,0,1-3.38,3.6,3.22,3.22,0,0,1-3.25-3.49,3.31,3.31,0,0,1,3.37-3.6A3.21,3.21,0,0,1,245.3,405.93Zm-5.38.07c0,1.49.86,2.61,2.06,2.61S244,407.5,244,406c0-1.15-.57-2.6-2-2.6S239.91,404.71,239.91,406Z" transform="translate(-16.99 -17.24)"/><path class="cls-2" d="M246.85,404.71c0-.8,0-1.49-.06-2.12h1.08l0,1.33H248a2,2,0,0,1,1.88-1.48,1.32,1.32,0,0,1,.35,0v1.16a1.89,1.89,0,0,0-.42,0,1.73,1.73,0,0,0-1.65,1.58,3.43,3.43,0,0,0-.06.57v3.61h-1.22Z" transform="translate(-16.99 -17.24)"/><path class="cls-2" d="M252,406.21a2.17,2.17,0,0,0,2.33,2.35,4.46,4.46,0,0,0,1.88-.35l.21.88a5.5,5.5,0,0,1-2.26.42,3.15,3.15,0,0,1-3.34-3.42c0-2,1.21-3.66,3.18-3.66,2.22,0,2.8,1.95,2.8,3.19a4.72,4.72,0,0,1,0,.57Zm3.62-.88a1.76,1.76,0,0,0-1.71-2,2,2,0,0,0-1.89,2Z" transform="translate(-16.99 -17.24)"/></g></svg>